<svg width="689" height="563" viewBox="0 0 689 563" fill="none" xmlns="http://www.w3.org/2000/svg">
<rect x="0.5" y="107.5" width="313" height="290" rx="9.5" fill="white"/>
<rect x="0.5" y="107.5" width="313" height="290" rx="9.5" stroke="#A4D3FF"/>
<path d="M83.84 142V133.36H87.098C87.182 133.36 87.272 133.364 87.368 133.372C87.468 133.376 87.572 133.388 87.68 133.408C88.112 133.476 88.482 133.632 88.79 133.876C89.102 134.116 89.34 134.42 89.504 134.788C89.668 135.152 89.75 135.554 89.75 135.994C89.75 136.438 89.668 136.844 89.504 137.212C89.34 137.576 89.102 137.88 88.79 138.124C88.482 138.364 88.112 138.518 87.68 138.586C87.572 138.602 87.468 138.614 87.368 138.622C87.272 138.63 87.182 138.634 87.098 138.634H84.53V142H83.84ZM84.53 137.956H87.086C87.158 137.956 87.24 137.952 87.332 137.944C87.428 137.936 87.524 137.924 87.62 137.908C87.932 137.844 88.192 137.718 88.4 137.53C88.608 137.338 88.764 137.108 88.868 136.84C88.972 136.572 89.024 136.29 89.024 135.994C89.024 135.698 88.972 135.418 88.868 135.154C88.764 134.886 88.608 134.658 88.4 134.47C88.192 134.278 87.932 134.15 87.62 134.086C87.524 134.066 87.428 134.052 87.332 134.044C87.24 134.036 87.158 134.032 87.086 134.032H84.53V137.956ZM90.9533 142V135.52H91.5833V137.074L91.4273 136.87C91.4993 136.686 91.5893 136.516 91.6973 136.36C91.8093 136.2 91.9233 136.07 92.0393 135.97C92.2113 135.81 92.4133 135.69 92.6453 135.61C92.8773 135.526 93.1113 135.478 93.3473 135.466C93.5833 135.45 93.7973 135.468 93.9893 135.52V136.174C93.7333 136.114 93.4613 136.102 93.1733 136.138C92.8853 136.174 92.6153 136.298 92.3633 136.51C92.1433 136.702 91.9833 136.926 91.8833 137.182C91.7833 137.434 91.7193 137.7 91.6913 137.98C91.6633 138.256 91.6493 138.526 91.6493 138.79V142H90.9533ZM97.678 142.18C97.058 142.18 96.522 142.042 96.07 141.766C95.618 141.486 95.268 141.092 95.02 140.584C94.772 140.072 94.648 139.468 94.648 138.772C94.648 138.064 94.77 137.454 95.014 136.942C95.262 136.426 95.61 136.03 96.058 135.754C96.51 135.478 97.046 135.34 97.666 135.34C98.294 135.34 98.83 135.484 99.274 135.772C99.722 136.056 100.062 136.468 100.294 137.008C100.53 137.548 100.642 138.198 100.63 138.958H99.91V138.718C99.89 137.83 99.69 137.154 99.31 136.69C98.93 136.226 98.386 135.994 97.678 135.994C96.946 135.994 96.38 136.236 95.98 136.72C95.584 137.2 95.386 137.88 95.386 138.76C95.386 139.632 95.584 140.308 95.98 140.788C96.38 141.268 96.942 141.508 97.666 141.508C98.166 141.508 98.602 141.392 98.974 141.16C99.35 140.924 99.648 140.588 99.868 140.152L100.492 140.428C100.232 140.988 99.856 141.42 99.364 141.724C98.872 142.028 98.31 142.18 97.678 142.18ZM95.122 138.958V138.334H100.24V138.958H95.122ZM101.957 142V133.36H105.263C105.711 133.36 106.113 133.456 106.469 133.648C106.829 133.836 107.111 134.094 107.315 134.422C107.523 134.75 107.627 135.12 107.627 135.532C107.627 135.996 107.499 136.414 107.243 136.786C106.987 137.154 106.647 137.412 106.223 137.56L106.199 137.272C106.767 137.444 107.217 137.732 107.549 138.136C107.885 138.536 108.053 139.032 108.053 139.624C108.053 140.12 107.943 140.546 107.723 140.902C107.507 141.254 107.207 141.526 106.823 141.718C106.439 141.906 106.003 142 105.515 142H101.957ZM102.653 141.322H105.287C105.671 141.322 106.015 141.256 106.319 141.124C106.627 140.992 106.869 140.802 107.045 140.554C107.225 140.306 107.315 140.006 107.315 139.654C107.315 139.306 107.233 138.992 107.069 138.712C106.909 138.428 106.691 138.204 106.415 138.04C106.139 137.872 105.829 137.788 105.485 137.788H102.653V141.322ZM102.653 137.122H105.257C105.557 137.122 105.831 137.052 106.079 136.912C106.331 136.772 106.531 136.582 106.679 136.342C106.827 136.098 106.901 135.82 106.901 135.508C106.901 135.064 106.743 134.706 106.427 134.434C106.115 134.162 105.725 134.026 105.257 134.026H102.653V137.122ZM111.736 142.15C111.38 142.15 111.06 142.098 110.776 141.994C110.496 141.89 110.252 141.744 110.044 141.556C109.836 141.364 109.664 141.14 109.528 140.884C109.392 140.624 109.29 140.34 109.222 140.032C109.158 139.724 109.126 139.402 109.126 139.066V135.52H109.822V138.892C109.822 139.3 109.862 139.664 109.942 139.984C110.026 140.304 110.15 140.576 110.314 140.8C110.482 141.024 110.69 141.194 110.938 141.31C111.19 141.426 111.486 141.484 111.826 141.484C112.178 141.484 112.482 141.424 112.738 141.304C112.998 141.18 113.21 141.008 113.374 140.788C113.542 140.568 113.666 140.308 113.746 140.008C113.83 139.704 113.872 139.374 113.872 139.018L114.418 139.084C114.418 139.784 114.298 140.362 114.058 140.818C113.822 141.27 113.502 141.606 113.098 141.826C112.694 142.042 112.24 142.15 111.736 142.15ZM113.938 142V140.542H113.872V135.52H114.568V142H113.938ZM116.362 134.212V133.33H117.052V134.212H116.362ZM116.362 142V135.52H117.052V142H116.362ZM118.976 142V133.18H119.666V142H118.976ZM124.907 142C124.563 142.076 124.223 142.104 123.887 142.084C123.551 142.068 123.251 141.994 122.987 141.862C122.727 141.726 122.531 141.518 122.399 141.238C122.291 141.01 122.231 140.78 122.219 140.548C122.207 140.316 122.201 140.05 122.201 139.75V133.72H122.897V139.738C122.897 140.01 122.899 140.236 122.903 140.416C122.911 140.592 122.953 140.754 123.029 140.902C123.173 141.178 123.401 141.346 123.713 141.406C124.025 141.462 124.423 141.452 124.907 141.376V142ZM120.749 136.15V135.52H124.907V136.15H120.749ZM131.997 142.18C131.137 142.18 130.415 141.99 129.831 141.61C129.247 141.226 128.807 140.696 128.511 140.02C128.215 139.344 128.067 138.564 128.067 137.68C128.067 136.796 128.215 136.016 128.511 135.34C128.807 134.664 129.247 134.136 129.831 133.756C130.415 133.372 131.137 133.18 131.997 133.18C132.857 133.18 133.577 133.372 134.157 133.756C134.741 134.136 135.181 134.664 135.477 135.34C135.773 136.016 135.921 136.796 135.921 137.68C135.921 138.564 135.773 139.344 135.477 140.02C135.181 140.696 134.741 141.226 134.157 141.61C133.577 141.99 132.857 142.18 131.997 142.18ZM131.997 141.502C132.705 141.506 133.295 141.346 133.767 141.022C134.239 140.694 134.593 140.242 134.829 139.666C135.065 139.09 135.183 138.428 135.183 137.68C135.183 136.932 135.065 136.27 134.829 135.694C134.593 135.118 134.239 134.668 133.767 134.344C133.295 134.02 132.705 133.858 131.997 133.858C131.289 133.854 130.699 134.014 130.227 134.338C129.759 134.662 129.407 135.114 129.171 135.694C128.935 136.27 128.813 136.932 128.805 137.68C128.797 138.428 128.911 139.09 129.147 139.666C129.387 140.238 129.745 140.688 130.221 141.016C130.697 141.34 131.289 141.502 131.997 141.502ZM139.963 142.18C139.379 142.18 138.885 142.028 138.481 141.724C138.077 141.42 137.769 141.01 137.557 140.494C137.345 139.978 137.239 139.396 137.239 138.748C137.239 138.096 137.345 137.514 137.557 137.002C137.769 136.486 138.083 136.08 138.499 135.784C138.915 135.488 139.425 135.34 140.029 135.34C140.617 135.34 141.119 135.49 141.535 135.79C141.951 136.09 142.267 136.498 142.483 137.014C142.703 137.53 142.813 138.108 142.813 138.748C142.813 139.396 142.701 139.98 142.477 140.5C142.257 141.016 141.935 141.426 141.511 141.73C141.091 142.03 140.575 142.18 139.963 142.18ZM137.125 144.88V135.52H137.755V140.512H137.815V144.88H137.125ZM139.921 141.52C140.397 141.52 140.793 141.398 141.109 141.154C141.429 140.91 141.669 140.58 141.829 140.164C141.993 139.744 142.075 139.272 142.075 138.748C142.075 138.228 141.995 137.762 141.835 137.35C141.679 136.934 141.441 136.606 141.121 136.366C140.805 136.122 140.401 136 139.909 136C139.433 136 139.035 136.118 138.715 136.354C138.395 136.586 138.155 136.91 137.995 137.326C137.835 137.742 137.755 138.216 137.755 138.748C137.755 139.276 137.833 139.75 137.989 140.17C138.149 140.586 138.389 140.916 138.709 141.16C139.033 141.4 139.437 141.52 139.921 141.52ZM147.571 142C147.227 142.076 146.887 142.104 146.551 142.084C146.215 142.068 145.915 141.994 145.651 141.862C145.391 141.726 145.195 141.518 145.063 141.238C144.955 141.01 144.895 140.78 144.883 140.548C144.871 140.316 144.865 140.05 144.865 139.75V133.72H145.561V139.738C145.561 140.01 145.563 140.236 145.567 140.416C145.575 140.592 145.617 140.754 145.693 140.902C145.837 141.178 146.065 141.346 146.377 141.406C146.689 141.462 147.087 141.452 147.571 141.376V142ZM143.413 136.15V135.52H147.571V136.15H143.413ZM148.929 134.212V133.33H149.619V134.212H148.929ZM148.929 142V135.52H149.619V142H148.929ZM154.08 142.18C153.436 142.18 152.89 142.034 152.442 141.742C151.994 141.45 151.652 141.046 151.416 140.53C151.18 140.014 151.062 139.42 151.062 138.748C151.062 138.072 151.182 137.478 151.422 136.966C151.662 136.45 152.006 136.05 152.454 135.766C152.906 135.482 153.448 135.34 154.08 135.34C154.724 135.34 155.27 135.486 155.718 135.778C156.17 136.066 156.512 136.466 156.744 136.978C156.98 137.49 157.098 138.08 157.098 138.748C157.098 139.432 156.98 140.032 156.744 140.548C156.508 141.06 156.164 141.46 155.712 141.748C155.26 142.036 154.716 142.18 154.08 142.18ZM154.08 141.508C154.844 141.508 155.414 141.252 155.79 140.74C156.17 140.228 156.36 139.564 156.36 138.748C156.36 137.916 156.17 137.252 155.79 136.756C155.41 136.26 154.84 136.012 154.08 136.012C153.564 136.012 153.138 136.13 152.802 136.366C152.466 136.598 152.214 136.92 152.046 137.332C151.882 137.74 151.8 138.212 151.8 138.748C151.8 139.58 151.992 140.248 152.376 140.752C152.764 141.256 153.332 141.508 154.08 141.508ZM163.164 142V138.628C163.164 138.22 163.122 137.856 163.038 137.536C162.958 137.216 162.834 136.944 162.666 136.72C162.502 136.496 162.294 136.326 162.042 136.21C161.794 136.094 161.5 136.036 161.16 136.036C160.808 136.036 160.502 136.098 160.242 136.222C159.986 136.342 159.774 136.512 159.606 136.732C159.442 136.952 159.318 137.214 159.234 137.518C159.154 137.818 159.114 138.146 159.114 138.502L158.568 138.436C158.568 137.736 158.686 137.16 158.922 136.708C159.162 136.252 159.484 135.916 159.888 135.7C160.292 135.48 160.746 135.37 161.25 135.37C161.606 135.37 161.924 135.422 162.204 135.526C162.488 135.63 162.734 135.778 162.942 135.97C163.15 136.158 163.322 136.382 163.458 136.642C163.594 136.898 163.694 137.18 163.758 137.488C163.826 137.796 163.86 138.118 163.86 138.454V142H163.164ZM158.418 142V135.52H159.048V136.978H159.114V142H158.418ZM167.808 142.168C167.06 142.168 166.442 142.01 165.954 141.694C165.47 141.378 165.17 140.938 165.054 140.374L165.762 140.254C165.862 140.638 166.098 140.944 166.47 141.172C166.842 141.4 167.298 141.514 167.838 141.514C168.374 141.514 168.8 141.4 169.116 141.172C169.432 140.944 169.59 140.632 169.59 140.236C169.59 140.02 169.54 139.844 169.44 139.708C169.344 139.568 169.152 139.44 168.864 139.324C168.576 139.208 168.148 139.072 167.58 138.916C166.98 138.756 166.51 138.596 166.17 138.436C165.834 138.276 165.596 138.094 165.456 137.89C165.32 137.686 165.252 137.436 165.252 137.14C165.252 136.784 165.354 136.472 165.558 136.204C165.762 135.932 166.046 135.72 166.41 135.568C166.778 135.416 167.202 135.34 167.682 135.34C168.162 135.34 168.594 135.42 168.978 135.58C169.362 135.736 169.672 135.956 169.908 136.24C170.144 136.52 170.28 136.846 170.316 137.218L169.608 137.35C169.54 136.934 169.33 136.606 168.978 136.366C168.626 136.122 168.186 135.998 167.658 135.994C167.158 135.986 166.75 136.086 166.434 136.294C166.118 136.498 165.96 136.768 165.96 137.104C165.96 137.296 166.014 137.46 166.122 137.596C166.234 137.728 166.43 137.85 166.71 137.962C166.99 138.074 167.386 138.194 167.898 138.322C168.522 138.482 169.008 138.646 169.356 138.814C169.708 138.982 169.956 139.18 170.1 139.408C170.244 139.632 170.316 139.91 170.316 140.242C170.316 140.842 170.092 141.314 169.644 141.658C169.2 141.998 168.588 142.168 167.808 142.168ZM176.985 142.18C176.393 142.18 175.859 142.082 175.383 141.886C174.911 141.69 174.519 141.412 174.207 141.052C173.899 140.692 173.693 140.264 173.589 139.768L174.297 139.648C174.445 140.224 174.761 140.678 175.245 141.01C175.733 141.342 176.319 141.508 177.003 141.508C177.467 141.508 177.877 141.434 178.233 141.286C178.589 141.138 178.867 140.93 179.067 140.662C179.267 140.39 179.367 140.074 179.367 139.714C179.367 139.454 179.319 139.236 179.223 139.06C179.131 138.884 179.011 138.74 178.863 138.628C178.715 138.512 178.557 138.42 178.389 138.352C178.221 138.28 178.063 138.222 177.915 138.178L175.743 137.53C175.455 137.446 175.197 137.342 174.969 137.218C174.745 137.09 174.555 136.944 174.399 136.78C174.247 136.612 174.129 136.422 174.045 136.21C173.965 135.998 173.925 135.762 173.925 135.502C173.925 135.038 174.049 134.632 174.297 134.284C174.545 133.936 174.885 133.666 175.317 133.474C175.753 133.278 176.253 133.18 176.817 133.18C177.385 133.184 177.895 133.29 178.347 133.498C178.799 133.702 179.169 133.992 179.457 134.368C179.749 134.744 179.937 135.19 180.021 135.706L179.307 135.832C179.251 135.436 179.107 135.09 178.875 134.794C178.647 134.498 178.355 134.268 177.999 134.104C177.643 133.94 177.247 133.858 176.811 133.858C176.391 133.854 176.019 133.924 175.695 134.068C175.375 134.212 175.123 134.406 174.939 134.65C174.755 134.894 174.663 135.17 174.663 135.478C174.663 135.798 174.749 136.054 174.921 136.246C175.097 136.434 175.311 136.582 175.563 136.69C175.819 136.798 176.063 136.886 176.295 136.954L178.035 137.47C178.199 137.518 178.395 137.586 178.623 137.674C178.851 137.762 179.075 137.888 179.295 138.052C179.515 138.212 179.697 138.426 179.841 138.694C179.989 138.958 180.063 139.29 180.063 139.69C180.063 140.078 179.989 140.426 179.841 140.734C179.693 141.042 179.481 141.304 179.205 141.52C178.929 141.732 178.603 141.894 178.227 142.006C177.851 142.122 177.437 142.18 176.985 142.18ZM184.719 142C184.375 142.076 184.035 142.104 183.699 142.084C183.363 142.068 183.063 141.994 182.799 141.862C182.539 141.726 182.343 141.518 182.211 141.238C182.103 141.01 182.043 140.78 182.031 140.548C182.019 140.316 182.013 140.05 182.013 139.75V133.72H182.709V139.738C182.709 140.01 182.711 140.236 182.715 140.416C182.723 140.592 182.765 140.754 182.841 140.902C182.985 141.178 183.213 141.346 183.525 141.406C183.837 141.462 184.235 141.452 184.719 141.376V142ZM180.561 136.15V135.52H184.719V136.15H180.561ZM185.957 142V135.52H186.587V137.074L186.431 136.87C186.503 136.686 186.593 136.516 186.701 136.36C186.813 136.2 186.927 136.07 187.043 135.97C187.215 135.81 187.417 135.69 187.649 135.61C187.881 135.526 188.115 135.478 188.351 135.466C188.587 135.45 188.801 135.468 188.993 135.52V136.174C188.737 136.114 188.465 136.102 188.177 136.138C187.889 136.174 187.619 136.298 187.367 136.51C187.147 136.702 186.987 136.926 186.887 137.182C186.787 137.434 186.723 137.7 186.695 137.98C186.667 138.256 186.653 138.526 186.653 138.79V142H185.957ZM191.732 142.18C191.232 142.18 190.816 142.092 190.484 141.916C190.156 141.74 189.91 141.508 189.746 141.22C189.582 140.928 189.5 140.612 189.5 140.272C189.5 139.904 189.576 139.596 189.728 139.348C189.884 139.1 190.09 138.9 190.346 138.748C190.606 138.596 190.892 138.482 191.204 138.406C191.56 138.326 191.944 138.258 192.356 138.202C192.768 138.142 193.16 138.09 193.532 138.046C193.908 138.002 194.214 137.964 194.45 137.932L194.198 138.082C194.214 137.382 194.082 136.862 193.802 136.522C193.526 136.178 193.038 136.006 192.338 136.006C191.846 136.006 191.44 136.118 191.12 136.342C190.804 136.562 190.582 136.904 190.454 137.368L189.746 137.17C189.894 136.582 190.192 136.13 190.64 135.814C191.088 135.498 191.662 135.34 192.362 135.34C192.958 135.34 193.458 135.456 193.862 135.688C194.27 135.92 194.554 136.246 194.714 136.666C194.782 136.838 194.828 137.04 194.852 137.272C194.876 137.5 194.888 137.73 194.888 137.962V142H194.258V140.296L194.492 140.356C194.296 140.94 193.954 141.39 193.466 141.706C192.978 142.022 192.4 142.18 191.732 142.18ZM191.768 141.544C192.208 141.544 192.594 141.466 192.926 141.31C193.258 141.15 193.526 140.928 193.73 140.644C193.938 140.356 194.07 140.018 194.126 139.63C194.166 139.414 194.188 139.18 194.192 138.928C194.196 138.676 194.198 138.49 194.198 138.37L194.498 138.562C194.238 138.594 193.926 138.628 193.562 138.664C193.202 138.7 192.834 138.744 192.458 138.796C192.082 138.848 191.742 138.914 191.438 138.994C191.25 139.046 191.06 139.122 190.868 139.222C190.68 139.318 190.522 139.452 190.394 139.624C190.27 139.796 190.208 140.014 190.208 140.278C190.208 140.474 190.256 140.67 190.352 140.866C190.452 141.062 190.616 141.224 190.844 141.352C191.072 141.48 191.38 141.544 191.768 141.544ZM199.883 142C199.539 142.076 199.199 142.104 198.863 142.084C198.527 142.068 198.227 141.994 197.963 141.862C197.703 141.726 197.507 141.518 197.375 141.238C197.267 141.01 197.207 140.78 197.195 140.548C197.183 140.316 197.177 140.05 197.177 139.75V133.72H197.873V139.738C197.873 140.01 197.875 140.236 197.879 140.416C197.887 140.592 197.929 140.754 198.005 140.902C198.149 141.178 198.377 141.346 198.689 141.406C199.001 141.462 199.399 141.452 199.883 141.376V142ZM195.725 136.15V135.52H199.883V136.15H195.725ZM203.58 142.18C202.96 142.18 202.424 142.042 201.972 141.766C201.52 141.486 201.17 141.092 200.922 140.584C200.674 140.072 200.55 139.468 200.55 138.772C200.55 138.064 200.672 137.454 200.916 136.942C201.164 136.426 201.512 136.03 201.96 135.754C202.412 135.478 202.948 135.34 203.568 135.34C204.196 135.34 204.732 135.484 205.176 135.772C205.624 136.056 205.964 136.468 206.196 137.008C206.432 137.548 206.544 138.198 206.532 138.958H205.812V138.718C205.792 137.83 205.592 137.154 205.212 136.69C204.832 136.226 204.288 135.994 203.58 135.994C202.848 135.994 202.282 136.236 201.882 136.72C201.486 137.2 201.288 137.88 201.288 138.76C201.288 139.632 201.486 140.308 201.882 140.788C202.282 141.268 202.844 141.508 203.568 141.508C204.068 141.508 204.504 141.392 204.876 141.16C205.252 140.924 205.55 140.588 205.77 140.152L206.394 140.428C206.134 140.988 205.758 141.42 205.266 141.724C204.774 142.028 204.212 142.18 203.58 142.18ZM201.024 138.958V138.334H206.142V138.958H201.024ZM210.38 145.06C210.06 145.06 209.74 145.012 209.42 144.916C209.104 144.824 208.808 144.672 208.532 144.46C208.256 144.252 208.022 143.974 207.83 143.626L208.454 143.254C208.65 143.654 208.928 143.94 209.288 144.112C209.648 144.284 210.014 144.37 210.386 144.37C210.91 144.37 211.324 144.272 211.628 144.076C211.936 143.884 212.156 143.594 212.288 143.206C212.42 142.822 212.486 142.344 212.486 141.772V140.074H212.558V135.52H213.188V141.772C213.188 141.964 213.184 142.148 213.176 142.324C213.168 142.5 213.15 142.676 213.122 142.852C213.05 143.352 212.902 143.764 212.678 144.088C212.454 144.416 212.15 144.66 211.766 144.82C211.386 144.98 210.924 145.06 210.38 145.06ZM210.35 142.18C209.738 142.18 209.22 142.03 208.796 141.73C208.376 141.426 208.054 141.016 207.83 140.5C207.61 139.98 207.5 139.396 207.5 138.748C207.5 138.108 207.61 137.53 207.83 137.014C208.05 136.498 208.366 136.09 208.778 135.79C209.194 135.49 209.696 135.34 210.284 135.34C210.888 135.34 211.398 135.488 211.814 135.784C212.23 136.08 212.544 136.486 212.756 137.002C212.968 137.514 213.074 138.096 213.074 138.748C213.074 139.396 212.968 139.978 212.756 140.494C212.544 141.01 212.236 141.42 211.832 141.724C211.428 142.028 210.934 142.18 210.35 142.18ZM210.392 141.52C210.876 141.52 211.278 141.4 211.598 141.16C211.922 140.916 212.162 140.586 212.318 140.17C212.478 139.75 212.558 139.276 212.558 138.748C212.558 138.216 212.478 137.742 212.318 137.326C212.158 136.91 211.918 136.586 211.598 136.354C211.278 136.118 210.88 136 210.404 136C209.912 136 209.506 136.122 209.186 136.366C208.866 136.606 208.628 136.934 208.472 137.35C208.316 137.762 208.238 138.228 208.238 138.748C208.238 139.272 208.318 139.744 208.478 140.164C208.642 140.58 208.882 140.91 209.198 141.154C209.518 141.398 209.916 141.52 210.392 141.52ZM214.987 134.212V133.33H215.677V134.212H214.987ZM214.987 142V135.52H215.677V142H214.987ZM220.151 142.18C219.531 142.18 218.995 142.042 218.543 141.766C218.091 141.486 217.741 141.092 217.493 140.584C217.245 140.072 217.121 139.468 217.121 138.772C217.121 138.064 217.243 137.454 217.487 136.942C217.735 136.426 218.083 136.03 218.531 135.754C218.983 135.478 219.519 135.34 220.139 135.34C220.767 135.34 221.303 135.484 221.747 135.772C222.195 136.056 222.535 136.468 222.767 137.008C223.003 137.548 223.115 138.198 223.103 138.958H222.383V138.718C222.363 137.83 222.163 137.154 221.783 136.69C221.403 136.226 220.859 135.994 220.151 135.994C219.419 135.994 218.853 136.236 218.453 136.72C218.057 137.2 217.859 137.88 217.859 138.76C217.859 139.632 218.057 140.308 218.453 140.788C218.853 141.268 219.415 141.508 220.139 141.508C220.639 141.508 221.075 141.392 221.447 141.16C221.823 140.924 222.121 140.588 222.341 140.152L222.965 140.428C222.705 140.988 222.329 141.42 221.837 141.724C221.345 142.028 220.783 142.18 220.151 142.18ZM217.595 138.958V138.334H222.713V138.958H217.595ZM226.824 142.168C226.076 142.168 225.458 142.01 224.97 141.694C224.486 141.378 224.186 140.938 224.07 140.374L224.778 140.254C224.878 140.638 225.114 140.944 225.486 141.172C225.858 141.4 226.314 141.514 226.854 141.514C227.39 141.514 227.816 141.4 228.132 141.172C228.448 140.944 228.606 140.632 228.606 140.236C228.606 140.02 228.556 139.844 228.456 139.708C228.36 139.568 228.168 139.44 227.88 139.324C227.592 139.208 227.164 139.072 226.596 138.916C225.996 138.756 225.526 138.596 225.186 138.436C224.85 138.276 224.612 138.094 224.472 137.89C224.336 137.686 224.268 137.436 224.268 137.14C224.268 136.784 224.37 136.472 224.574 136.204C224.778 135.932 225.062 135.72 225.426 135.568C225.794 135.416 226.218 135.34 226.698 135.34C227.178 135.34 227.61 135.42 227.994 135.58C228.378 135.736 228.688 135.956 228.924 136.24C229.16 136.52 229.296 136.846 229.332 137.218L228.624 137.35C228.556 136.934 228.346 136.606 227.994 136.366C227.642 136.122 227.202 135.998 226.674 135.994C226.174 135.986 225.766 136.086 225.45 136.294C225.134 136.498 224.976 136.768 224.976 137.104C224.976 137.296 225.03 137.46 225.138 137.596C225.25 137.728 225.446 137.85 225.726 137.962C226.006 138.074 226.402 138.194 226.914 138.322C227.538 138.482 228.024 138.646 228.372 138.814C228.724 138.982 228.972 139.18 229.116 139.408C229.26 139.632 229.332 139.91 229.332 140.242C229.332 140.842 229.108 141.314 228.66 141.658C228.216 141.998 227.604 142.168 226.824 142.168Z" fill="black"/>
<path d="M40.8536 177.646C40.6583 177.451 40.3417 177.451 40.1464 177.646L36.9645 180.828C36.7692 181.024 36.7692 181.34 36.9645 181.536C37.1597 181.731 37.4763 181.731 37.6716 181.536L40.5 178.707L43.3284 181.536C43.5237 181.731 43.8403 181.731 44.0355 181.536C44.2308 181.34 44.2308 181.024 44.0355 180.828L40.8536 177.646ZM40.1464 360.354C40.3417 360.549 40.6583 360.549 40.8535 360.354L44.0355 357.172C44.2308 356.976 44.2308 356.66 44.0355 356.464C43.8403 356.269 43.5237 356.269 43.3284 356.464L40.5 359.293L37.6716 356.464C37.4763 356.269 37.1597 356.269 36.9645 356.464C36.7692 356.66 36.7692 356.976 36.9645 357.172L40.1464 360.354ZM40 178L40 360L41 360L41 178L40 178Z" fill="black" fill-opacity="0.5"/>
<path d="M272 269H41" stroke="black" stroke-opacity="0.5" stroke-linecap="square"/>
<line x1="71.4066" y1="212.709" x2="154.407" y2="328.709" stroke="black"/>
<line x1="241.399" y1="214.302" x2="154.399" y2="329.302" stroke="black"/>
<path d="M41 291H162L225.5 204" stroke="#147BFB" stroke-width="3" stroke-dasharray="10 10"/>
<path d="M290 306H156.5L93 219" stroke="#147BFB" stroke-width="3" stroke-dasharray="10 10"/>
<rect x="339.5" y="0.5" width="349" height="290" rx="9.5" fill="white"/>
<rect x="339.5" y="0.5" width="349" height="290" rx="9.5" stroke="#A4D3FF"/>
<path d="M441 230.5L477.5 56L545 163L617 81.5L674.5 274L545 163L441 230.5Z" fill="#F2F2F2"/>
<path d="M545 163L441 230.5L477.5 56L545 163ZM545 163L617 81.5L674.5 274L545 163Z" stroke="black" stroke-opacity="0.2"/>
<path d="M365 85.5L413 206.5M365 85.5L439.5 154M365 85.5L510.5 119.5M413 206.5L439.5 154M413 206.5L484 232M439.5 154L484 232M439.5 154L510.5 119.5M484 232L510.5 119.5" stroke="#147BFB" stroke-width="2" stroke-linecap="square"/>
<path d="M354.18 81L358.635 74.439L354.297 68.04H356.25L359.607 73.089L362.955 68.04H364.917L360.579 74.439L365.025 81H363.072L359.607 75.798L356.142 81H354.18Z" fill="black"/>
<path d="M467.84 27V18.36H468.53V22.344H473.534V18.36H474.23V27H473.534V23.016H468.53V27H467.84ZM477.786 27.18C477.286 27.18 476.87 27.092 476.538 26.916C476.21 26.74 475.964 26.508 475.8 26.22C475.636 25.928 475.554 25.612 475.554 25.272C475.554 24.904 475.63 24.596 475.782 24.348C475.938 24.1 476.144 23.9 476.4 23.748C476.66 23.596 476.946 23.482 477.258 23.406C477.614 23.326 477.998 23.258 478.41 23.202C478.822 23.142 479.214 23.09 479.586 23.046C479.962 23.002 480.268 22.964 480.504 22.932L480.252 23.082C480.268 22.382 480.136 21.862 479.856 21.522C479.58 21.178 479.092 21.006 478.392 21.006C477.9 21.006 477.494 21.118 477.174 21.342C476.858 21.562 476.636 21.904 476.508 22.368L475.8 22.17C475.948 21.582 476.246 21.13 476.694 20.814C477.142 20.498 477.716 20.34 478.416 20.34C479.012 20.34 479.512 20.456 479.916 20.688C480.324 20.92 480.608 21.246 480.768 21.666C480.836 21.838 480.882 22.04 480.906 22.272C480.93 22.5 480.942 22.73 480.942 22.962V27H480.312V25.296L480.546 25.356C480.35 25.94 480.008 26.39 479.52 26.706C479.032 27.022 478.454 27.18 477.786 27.18ZM477.822 26.544C478.262 26.544 478.648 26.466 478.98 26.31C479.312 26.15 479.58 25.928 479.784 25.644C479.992 25.356 480.124 25.018 480.18 24.63C480.22 24.414 480.242 24.18 480.246 23.928C480.25 23.676 480.252 23.49 480.252 23.37L480.552 23.562C480.292 23.594 479.98 23.628 479.616 23.664C479.256 23.7 478.888 23.744 478.512 23.796C478.136 23.848 477.796 23.914 477.492 23.994C477.304 24.046 477.114 24.122 476.922 24.222C476.734 24.318 476.576 24.452 476.448 24.624C476.324 24.796 476.262 25.014 476.262 25.278C476.262 25.474 476.31 25.67 476.406 25.866C476.506 26.062 476.67 26.224 476.898 26.352C477.126 26.48 477.434 26.544 477.822 26.544ZM482.5 27V20.52H483.13V22.074L482.974 21.87C483.046 21.686 483.136 21.516 483.244 21.36C483.356 21.2 483.47 21.07 483.586 20.97C483.758 20.81 483.96 20.69 484.192 20.61C484.424 20.526 484.658 20.478 484.894 20.466C485.13 20.45 485.344 20.468 485.536 20.52V21.174C485.28 21.114 485.008 21.102 484.72 21.138C484.432 21.174 484.162 21.298 483.91 21.51C483.69 21.702 483.53 21.926 483.43 22.182C483.33 22.434 483.266 22.7 483.238 22.98C483.21 23.256 483.196 23.526 483.196 23.79V27H482.5ZM494.382 27L494.394 22.644C494.394 22.12 494.244 21.71 493.944 21.414C493.648 21.114 493.278 20.964 492.834 20.964C492.582 20.964 492.332 21.022 492.084 21.138C491.84 21.254 491.636 21.442 491.472 21.702C491.308 21.962 491.226 22.314 491.226 22.758L490.74 22.68C490.724 22.208 490.81 21.798 490.998 21.45C491.19 21.098 491.454 20.826 491.79 20.634C492.13 20.442 492.516 20.346 492.948 20.346C493.584 20.346 494.098 20.542 494.49 20.934C494.886 21.326 495.084 21.862 495.084 22.542L495.072 27H494.382ZM486.672 27V20.52H487.302V21.978H487.362V27H486.672ZM490.53 27L490.542 22.71C490.542 22.174 490.396 21.75 490.104 21.438C489.812 21.122 489.432 20.964 488.964 20.964C488.488 20.964 488.102 21.128 487.806 21.456C487.51 21.78 487.362 22.214 487.362 22.758L486.882 22.518C486.882 22.098 486.978 21.726 487.17 21.402C487.362 21.074 487.624 20.816 487.956 20.628C488.292 20.44 488.676 20.346 489.108 20.346C489.496 20.346 489.85 20.428 490.17 20.592C490.49 20.756 490.746 21.004 490.938 21.336C491.13 21.664 491.226 22.076 491.226 22.572L491.214 27H490.53ZM499.279 27.18C498.635 27.18 498.089 27.034 497.641 26.742C497.193 26.45 496.851 26.046 496.615 25.53C496.379 25.014 496.261 24.42 496.261 23.748C496.261 23.072 496.381 22.478 496.621 21.966C496.861 21.45 497.205 21.05 497.653 20.766C498.105 20.482 498.647 20.34 499.279 20.34C499.923 20.34 500.469 20.486 500.917 20.778C501.369 21.066 501.711 21.466 501.943 21.978C502.179 22.49 502.297 23.08 502.297 23.748C502.297 24.432 502.179 25.032 501.943 25.548C501.707 26.06 501.363 26.46 500.911 26.748C500.459 27.036 499.915 27.18 499.279 27.18ZM499.279 26.508C500.043 26.508 500.613 26.252 500.989 25.74C501.369 25.228 501.559 24.564 501.559 23.748C501.559 22.916 501.369 22.252 500.989 21.756C500.609 21.26 500.039 21.012 499.279 21.012C498.763 21.012 498.337 21.13 498.001 21.366C497.665 21.598 497.413 21.92 497.245 22.332C497.081 22.74 496.999 23.212 496.999 23.748C496.999 24.58 497.191 25.248 497.575 25.752C497.963 26.256 498.531 26.508 499.279 26.508ZM508.363 27V23.628C508.363 23.22 508.321 22.856 508.237 22.536C508.157 22.216 508.033 21.944 507.865 21.72C507.701 21.496 507.493 21.326 507.241 21.21C506.993 21.094 506.699 21.036 506.359 21.036C506.007 21.036 505.701 21.098 505.441 21.222C505.185 21.342 504.973 21.512 504.805 21.732C504.641 21.952 504.517 22.214 504.433 22.518C504.353 22.818 504.313 23.146 504.313 23.502L503.767 23.436C503.767 22.736 503.885 22.16 504.121 21.708C504.361 21.252 504.683 20.916 505.087 20.7C505.491 20.48 505.945 20.37 506.449 20.37C506.805 20.37 507.123 20.422 507.403 20.526C507.687 20.63 507.933 20.778 508.141 20.97C508.349 21.158 508.521 21.382 508.657 21.642C508.793 21.898 508.893 22.18 508.957 22.488C509.025 22.796 509.059 23.118 509.059 23.454V27H508.363ZM503.617 27V20.52H504.247V21.978H504.313V27H503.617ZM510.733 19.212V18.33H511.423V19.212H510.733ZM510.733 27V20.52H511.423V27H510.733ZM515.873 27.18C515.225 27.18 514.679 27.036 514.235 26.748C513.791 26.456 513.453 26.054 513.221 25.542C512.993 25.026 512.875 24.432 512.867 23.76C512.875 23.076 512.995 22.478 513.227 21.966C513.463 21.45 513.803 21.05 514.247 20.766C514.691 20.482 515.235 20.34 515.879 20.34C516.507 20.34 517.059 20.492 517.535 20.796C518.015 21.096 518.347 21.51 518.531 22.038L517.859 22.284C517.695 21.88 517.437 21.568 517.085 21.348C516.733 21.124 516.329 21.012 515.873 21.012C515.361 21.012 514.939 21.13 514.607 21.366C514.275 21.598 514.027 21.92 513.863 22.332C513.699 22.744 513.613 23.22 513.605 23.76C513.617 24.588 513.811 25.254 514.187 25.758C514.567 26.258 515.129 26.508 515.873 26.508C516.333 26.508 516.731 26.402 517.067 26.19C517.407 25.978 517.667 25.67 517.847 25.266L518.531 25.5C518.279 26.048 517.927 26.466 517.475 26.754C517.023 27.038 516.489 27.18 515.873 27.18ZM522.192 27V18.36H525.45C525.534 18.36 525.624 18.364 525.72 18.372C525.82 18.376 525.924 18.388 526.032 18.408C526.464 18.476 526.834 18.632 527.142 18.876C527.454 19.116 527.692 19.42 527.856 19.788C528.02 20.152 528.102 20.554 528.102 20.994C528.102 21.438 528.02 21.844 527.856 22.212C527.692 22.576 527.454 22.88 527.142 23.124C526.834 23.364 526.464 23.518 526.032 23.586C525.924 23.602 525.82 23.614 525.72 23.622C525.624 23.63 525.534 23.634 525.45 23.634H522.882V27H522.192ZM522.882 22.956H525.438C525.51 22.956 525.592 22.952 525.684 22.944C525.78 22.936 525.876 22.924 525.972 22.908C526.284 22.844 526.544 22.718 526.752 22.53C526.96 22.338 527.116 22.108 527.22 21.84C527.324 21.572 527.376 21.29 527.376 20.994C527.376 20.698 527.324 20.418 527.22 20.154C527.116 19.886 526.96 19.658 526.752 19.47C526.544 19.278 526.284 19.15 525.972 19.086C525.876 19.066 525.78 19.052 525.684 19.044C525.592 19.036 525.51 19.032 525.438 19.032H522.882V22.956ZM530.849 27.18C530.349 27.18 529.933 27.092 529.601 26.916C529.273 26.74 529.027 26.508 528.863 26.22C528.699 25.928 528.617 25.612 528.617 25.272C528.617 24.904 528.693 24.596 528.845 24.348C529.001 24.1 529.207 23.9 529.463 23.748C529.723 23.596 530.009 23.482 530.321 23.406C530.677 23.326 531.061 23.258 531.473 23.202C531.885 23.142 532.277 23.09 532.649 23.046C533.025 23.002 533.331 22.964 533.567 22.932L533.315 23.082C533.331 22.382 533.199 21.862 532.919 21.522C532.643 21.178 532.155 21.006 531.455 21.006C530.963 21.006 530.557 21.118 530.237 21.342C529.921 21.562 529.699 21.904 529.571 22.368L528.863 22.17C529.011 21.582 529.309 21.13 529.757 20.814C530.205 20.498 530.779 20.34 531.479 20.34C532.075 20.34 532.575 20.456 532.979 20.688C533.387 20.92 533.671 21.246 533.831 21.666C533.899 21.838 533.945 22.04 533.969 22.272C533.993 22.5 534.005 22.73 534.005 22.962V27H533.375V25.296L533.609 25.356C533.413 25.94 533.071 26.39 532.583 26.706C532.095 27.022 531.517 27.18 530.849 27.18ZM530.885 26.544C531.325 26.544 531.711 26.466 532.043 26.31C532.375 26.15 532.643 25.928 532.847 25.644C533.055 25.356 533.187 25.018 533.243 24.63C533.283 24.414 533.305 24.18 533.309 23.928C533.313 23.676 533.315 23.49 533.315 23.37L533.615 23.562C533.355 23.594 533.043 23.628 532.679 23.664C532.319 23.7 531.951 23.744 531.575 23.796C531.199 23.848 530.859 23.914 530.555 23.994C530.367 24.046 530.177 24.122 529.985 24.222C529.797 24.318 529.639 24.452 529.511 24.624C529.387 24.796 529.325 25.014 529.325 25.278C529.325 25.474 529.373 25.67 529.469 25.866C529.569 26.062 529.733 26.224 529.961 26.352C530.189 26.48 530.497 26.544 530.885 26.544ZM539.001 27C538.657 27.076 538.317 27.104 537.981 27.084C537.645 27.068 537.345 26.994 537.081 26.862C536.821 26.726 536.625 26.518 536.493 26.238C536.385 26.01 536.325 25.78 536.313 25.548C536.301 25.316 536.295 25.05 536.295 24.75V18.72H536.991V24.738C536.991 25.01 536.993 25.236 536.997 25.416C537.005 25.592 537.047 25.754 537.123 25.902C537.267 26.178 537.495 26.346 537.807 26.406C538.119 26.462 538.517 26.452 539.001 26.376V27ZM534.843 21.15V20.52H539.001V21.15H534.843ZM542.961 27C542.617 27.076 542.277 27.104 541.941 27.084C541.605 27.068 541.305 26.994 541.041 26.862C540.781 26.726 540.585 26.518 540.453 26.238C540.345 26.01 540.285 25.78 540.273 25.548C540.261 25.316 540.255 25.05 540.255 24.75V18.72H540.951V24.738C540.951 25.01 540.953 25.236 540.957 25.416C540.965 25.592 541.007 25.754 541.083 25.902C541.227 26.178 541.455 26.346 541.767 26.406C542.079 26.462 542.477 26.452 542.961 26.376V27ZM538.803 21.15V20.52H542.961V21.15H538.803ZM546.869 27.18C546.249 27.18 545.713 27.042 545.261 26.766C544.809 26.486 544.459 26.092 544.211 25.584C543.963 25.072 543.839 24.468 543.839 23.772C543.839 23.064 543.961 22.454 544.205 21.942C544.453 21.426 544.801 21.03 545.249 20.754C545.701 20.478 546.237 20.34 546.857 20.34C547.485 20.34 548.021 20.484 548.465 20.772C548.913 21.056 549.253 21.468 549.485 22.008C549.721 22.548 549.833 23.198 549.821 23.958H549.101V23.718C549.081 22.83 548.881 22.154 548.501 21.69C548.121 21.226 547.577 20.994 546.869 20.994C546.137 20.994 545.571 21.236 545.171 21.72C544.775 22.2 544.577 22.88 544.577 23.76C544.577 24.632 544.775 25.308 545.171 25.788C545.571 26.268 546.133 26.508 546.857 26.508C547.357 26.508 547.793 26.392 548.165 26.16C548.541 25.924 548.839 25.588 549.059 25.152L549.683 25.428C549.423 25.988 549.047 26.42 548.555 26.724C548.063 27.028 547.501 27.18 546.869 27.18ZM544.313 23.958V23.334H549.431V23.958H544.313ZM551.149 27V20.52H551.779V22.074L551.623 21.87C551.695 21.686 551.785 21.516 551.893 21.36C552.005 21.2 552.119 21.07 552.235 20.97C552.407 20.81 552.609 20.69 552.841 20.61C553.073 20.526 553.307 20.478 553.543 20.466C553.779 20.45 553.993 20.468 554.185 20.52V21.174C553.929 21.114 553.657 21.102 553.369 21.138C553.081 21.174 552.811 21.298 552.559 21.51C552.339 21.702 552.179 21.926 552.079 22.182C551.979 22.434 551.915 22.7 551.887 22.98C551.859 23.256 551.845 23.526 551.845 23.79V27H551.149ZM560.066 27V23.628C560.066 23.22 560.024 22.856 559.94 22.536C559.86 22.216 559.736 21.944 559.568 21.72C559.404 21.496 559.196 21.326 558.944 21.21C558.696 21.094 558.402 21.036 558.062 21.036C557.71 21.036 557.404 21.098 557.144 21.222C556.888 21.342 556.676 21.512 556.508 21.732C556.344 21.952 556.22 22.214 556.136 22.518C556.056 22.818 556.016 23.146 556.016 23.502L555.47 23.436C555.47 22.736 555.588 22.16 555.824 21.708C556.064 21.252 556.386 20.916 556.79 20.7C557.194 20.48 557.648 20.37 558.152 20.37C558.508 20.37 558.826 20.422 559.106 20.526C559.39 20.63 559.636 20.778 559.844 20.97C560.052 21.158 560.224 21.382 560.36 21.642C560.496 21.898 560.596 22.18 560.66 22.488C560.728 22.796 560.762 23.118 560.762 23.454V27H560.066ZM555.32 27V20.52H555.95V21.978H556.016V27H555.32Z" fill="black"/>
<path d="M509.26 114V101.04H513.256C513.388 101.04 513.619 101.043 513.949 101.049C514.279 101.055 514.594 101.079 514.894 101.121C515.896 101.253 516.733 101.619 517.405 102.219C518.083 102.813 518.593 103.569 518.935 104.487C519.277 105.405 519.448 106.416 519.448 107.52C519.448 108.624 519.277 109.635 518.935 110.553C518.593 111.471 518.083 112.23 517.405 112.83C516.733 113.424 515.896 113.787 514.894 113.919C514.594 113.955 514.276 113.979 513.94 113.991C513.61 113.997 513.382 114 513.256 114H509.26ZM510.907 112.47H513.256C513.484 112.47 513.739 112.464 514.021 112.452C514.303 112.434 514.549 112.407 514.759 112.371C515.467 112.239 516.04 111.942 516.478 111.48C516.916 111.018 517.237 110.442 517.441 109.752C517.645 109.062 517.747 108.318 517.747 107.52C517.747 106.704 517.642 105.951 517.432 105.261C517.228 104.571 516.907 103.998 516.469 103.542C516.031 103.086 515.461 102.795 514.759 102.669C514.549 102.627 514.3 102.6 514.012 102.588C513.724 102.576 513.472 102.57 513.256 102.57H510.907V112.47Z" fill="black"/>
<path d="M436.26 139V126.04H441.309C442.083 126.04 442.743 126.199 443.289 126.517C443.841 126.835 444.261 127.255 444.549 127.777C444.843 128.293 444.99 128.851 444.99 129.451C444.99 130.153 444.81 130.768 444.45 131.296C444.09 131.824 443.604 132.187 442.992 132.385L442.974 131.944C443.808 132.166 444.456 132.574 444.918 133.168C445.38 133.762 445.611 134.47 445.611 135.292C445.611 136.048 445.455 136.702 445.143 137.254C444.837 137.806 444.393 138.235 443.811 138.541C443.235 138.847 442.551 139 441.759 139H436.26ZM437.88 137.47H441.453C441.933 137.47 442.362 137.383 442.74 137.209C443.118 137.029 443.415 136.777 443.631 136.453C443.853 136.129 443.964 135.739 443.964 135.283C443.964 134.845 443.865 134.452 443.667 134.104C443.475 133.756 443.202 133.48 442.848 133.276C442.5 133.066 442.095 132.961 441.633 132.961H437.88V137.47ZM437.88 131.449H441.291C441.675 131.449 442.02 131.368 442.326 131.206C442.638 131.038 442.884 130.804 443.064 130.504C443.25 130.204 443.343 129.853 443.343 129.451C443.343 128.893 443.154 128.437 442.776 128.083C442.398 127.729 441.903 127.552 441.291 127.552H437.88V131.449Z" fill="black"/>
<path d="M402.36 221L406.698 208.04H408.93L413.268 221H411.603L407.544 208.976H408.048L404.025 221H402.36ZM404.448 217.967V216.464H411.18V217.967H404.448Z" fill="black"/>
<path d="M486.588 250.27C485.298 250.27 484.203 249.985 483.303 249.415C482.403 248.845 481.716 248.053 481.242 247.039C480.774 246.025 480.54 244.852 480.54 243.52C480.54 242.188 480.774 241.015 481.242 240.001C481.716 238.987 482.403 238.195 483.303 237.625C484.203 237.055 485.298 236.77 486.588 236.77C488.088 236.77 489.321 237.151 490.287 237.913C491.259 238.675 491.928 239.701 492.294 240.991L490.665 241.423C490.401 240.457 489.93 239.695 489.252 239.137C488.574 238.579 487.686 238.3 486.588 238.3C485.622 238.3 484.818 238.519 484.176 238.957C483.534 239.395 483.051 240.007 482.727 240.793C482.403 241.573 482.238 242.482 482.232 243.52C482.226 244.552 482.385 245.461 482.709 246.247C483.033 247.027 483.519 247.639 484.167 248.083C484.815 248.521 485.622 248.74 486.588 248.74C487.686 248.74 488.574 248.461 489.252 247.903C489.93 247.339 490.401 246.577 490.665 245.617L492.294 246.049C491.928 247.333 491.259 248.359 490.287 249.127C489.321 249.889 488.088 250.27 486.588 250.27Z" fill="black"/>
<g filter="url(#filter0_d_7_1427)">
<rect x="344" y="307" width="324" height="248" rx="10" fill="white"/>
<rect x="344.5" y="307.5" width="323" height="247" rx="9.5" stroke="#A4D3FF"/>
<path d="M373 433.849C373 433.849 377.355 515 469.677 515C562 515 562 423 562 423" stroke="black" stroke-opacity="0.45" stroke-width="3"/>
<path d="M452.29 333.18C451.43 333.18 450.708 332.99 450.124 332.61C449.54 332.226 449.1 331.696 448.804 331.02C448.508 330.344 448.36 329.564 448.36 328.68C448.36 327.796 448.508 327.016 448.804 326.34C449.1 325.664 449.54 325.136 450.124 324.756C450.708 324.372 451.43 324.18 452.29 324.18C453.294 324.18 454.108 324.44 454.732 324.96C455.36 325.48 455.786 326.176 456.01 327.048L455.296 327.222C455.112 326.498 454.768 325.924 454.264 325.5C453.764 325.072 453.106 324.858 452.29 324.858C451.582 324.858 450.992 325.02 450.52 325.344C450.052 325.668 449.698 326.118 449.458 326.694C449.222 327.27 449.102 327.932 449.098 328.68C449.09 329.428 449.204 330.09 449.44 330.666C449.68 331.238 450.038 331.688 450.514 332.016C450.99 332.34 451.582 332.502 452.29 332.502C453.106 332.502 453.764 332.288 454.264 331.86C454.768 331.432 455.112 330.858 455.296 330.138L456.01 330.312C455.786 331.184 455.36 331.88 454.732 332.4C454.108 332.92 453.294 333.18 452.29 333.18ZM459.814 333.15C459.458 333.15 459.138 333.098 458.854 332.994C458.574 332.89 458.33 332.744 458.122 332.556C457.914 332.364 457.742 332.14 457.606 331.884C457.47 331.624 457.368 331.34 457.3 331.032C457.236 330.724 457.204 330.402 457.204 330.066V326.52H457.9V329.892C457.9 330.3 457.94 330.664 458.02 330.984C458.104 331.304 458.228 331.576 458.392 331.8C458.56 332.024 458.768 332.194 459.016 332.31C459.268 332.426 459.564 332.484 459.904 332.484C460.256 332.484 460.56 332.424 460.816 332.304C461.076 332.18 461.288 332.008 461.452 331.788C461.62 331.568 461.744 331.308 461.824 331.008C461.908 330.704 461.95 330.374 461.95 330.018L462.496 330.084C462.496 330.784 462.376 331.362 462.136 331.818C461.9 332.27 461.58 332.606 461.176 332.826C460.772 333.042 460.318 333.15 459.814 333.15ZM462.016 333V331.542H461.95V326.52H462.646V333H462.016ZM467.158 333.18C466.574 333.18 466.08 333.028 465.676 332.724C465.272 332.42 464.964 332.01 464.752 331.494C464.54 330.978 464.434 330.396 464.434 329.748C464.434 329.096 464.54 328.514 464.752 328.002C464.964 327.486 465.278 327.08 465.694 326.784C466.11 326.488 466.62 326.34 467.224 326.34C467.812 326.34 468.314 326.49 468.73 326.79C469.146 327.09 469.462 327.498 469.678 328.014C469.898 328.53 470.008 329.108 470.008 329.748C470.008 330.396 469.896 330.98 469.672 331.5C469.452 332.016 469.13 332.426 468.706 332.73C468.286 333.03 467.77 333.18 467.158 333.18ZM464.32 335.88V326.52H464.95V331.512H465.01V335.88H464.32ZM467.116 332.52C467.592 332.52 467.988 332.398 468.304 332.154C468.624 331.91 468.864 331.58 469.024 331.164C469.188 330.744 469.27 330.272 469.27 329.748C469.27 329.228 469.19 328.762 469.03 328.35C468.874 327.934 468.636 327.606 468.316 327.366C468 327.122 467.596 327 467.104 327C466.628 327 466.23 327.118 465.91 327.354C465.59 327.586 465.35 327.91 465.19 328.326C465.03 328.742 464.95 329.216 464.95 329.748C464.95 330.276 465.028 330.75 465.184 331.17C465.344 331.586 465.584 331.916 465.904 332.16C466.228 332.4 466.632 332.52 467.116 332.52ZM476.485 333.18C476.001 333.18 475.557 333.112 475.153 332.976C474.749 332.836 474.409 332.62 474.133 332.328C473.925 332.104 473.769 331.852 473.665 331.572C473.561 331.288 473.503 330.99 473.491 330.678C473.487 330.382 473.529 330.088 473.617 329.796C473.705 329.5 473.847 329.236 474.043 329.004C474.171 328.844 474.317 328.712 474.481 328.608C474.645 328.504 474.813 328.416 474.985 328.344C474.665 328.016 474.421 327.716 474.253 327.444C474.085 327.172 474.001 326.836 474.001 326.436C474.001 326.008 474.105 325.616 474.313 325.26C474.525 324.9 474.819 324.632 475.195 324.456C475.399 324.356 475.609 324.286 475.825 324.246C476.041 324.206 476.255 324.186 476.467 324.186C476.775 324.186 477.079 324.226 477.379 324.306C477.679 324.386 477.937 324.512 478.153 324.684C478.297 324.792 478.425 324.92 478.537 325.068C478.653 325.216 478.745 325.37 478.813 325.53L478.153 325.764C478.057 325.536 477.903 325.346 477.691 325.194C477.527 325.074 477.341 324.988 477.133 324.936C476.925 324.884 476.715 324.858 476.503 324.858C476.135 324.858 475.797 324.932 475.489 325.08C475.237 325.208 475.045 325.388 474.913 325.62C474.785 325.848 474.721 326.114 474.721 326.418C474.721 326.678 474.761 326.894 474.841 327.066C474.925 327.234 475.053 327.42 475.225 327.624C475.317 327.724 475.417 327.824 475.525 327.924C475.637 328.02 475.749 328.12 475.861 328.224L478.777 330.942C478.797 330.822 478.811 330.706 478.819 330.594C478.827 330.482 478.831 330.37 478.831 330.258L478.819 328.926H479.503V330.168C479.503 330.52 479.489 330.796 479.461 330.996C479.437 331.196 479.405 331.36 479.365 331.488L480.487 332.532L480.025 333.03L479.035 332.094C478.923 332.258 478.773 332.412 478.585 332.556C478.401 332.696 478.217 332.808 478.033 332.892C477.801 333.004 477.551 333.08 477.283 333.12C477.019 333.16 476.753 333.18 476.485 333.18ZM476.473 332.502C476.737 332.502 476.973 332.486 477.181 332.454C477.393 332.418 477.593 332.348 477.781 332.244C478.013 332.108 478.181 331.986 478.285 331.878C478.389 331.766 478.469 331.67 478.525 331.59L475.543 328.866C475.359 328.922 475.183 329 475.015 329.1C474.851 329.196 474.709 329.314 474.589 329.454C474.457 329.614 474.361 329.798 474.301 330.006C474.241 330.214 474.213 330.43 474.217 330.654C474.221 330.882 474.259 331.098 474.331 331.302C474.403 331.502 474.509 331.68 474.649 331.836C474.853 332.064 475.121 332.232 475.453 332.34C475.789 332.448 476.129 332.502 476.473 332.502ZM483.879 333V324.36H484.569V328.344H489.573V324.36H490.269V333H489.573V329.016H484.569V333H483.879ZM493.825 333.18C493.325 333.18 492.909 333.092 492.577 332.916C492.249 332.74 492.003 332.508 491.839 332.22C491.675 331.928 491.593 331.612 491.593 331.272C491.593 330.904 491.669 330.596 491.821 330.348C491.977 330.1 492.183 329.9 492.439 329.748C492.699 329.596 492.985 329.482 493.297 329.406C493.653 329.326 494.037 329.258 494.449 329.202C494.861 329.142 495.253 329.09 495.625 329.046C496.001 329.002 496.307 328.964 496.543 328.932L496.291 329.082C496.307 328.382 496.175 327.862 495.895 327.522C495.619 327.178 495.131 327.006 494.431 327.006C493.939 327.006 493.533 327.118 493.213 327.342C492.897 327.562 492.675 327.904 492.547 328.368L491.839 328.17C491.987 327.582 492.285 327.13 492.733 326.814C493.181 326.498 493.755 326.34 494.455 326.34C495.051 326.34 495.551 326.456 495.955 326.688C496.363 326.92 496.647 327.246 496.807 327.666C496.875 327.838 496.921 328.04 496.945 328.272C496.969 328.5 496.981 328.73 496.981 328.962V333H496.351V331.296L496.585 331.356C496.389 331.94 496.047 332.39 495.559 332.706C495.071 333.022 494.493 333.18 493.825 333.18ZM493.861 332.544C494.301 332.544 494.687 332.466 495.019 332.31C495.351 332.15 495.619 331.928 495.823 331.644C496.031 331.356 496.163 331.018 496.219 330.63C496.259 330.414 496.281 330.18 496.285 329.928C496.289 329.676 496.291 329.49 496.291 329.37L496.591 329.562C496.331 329.594 496.019 329.628 495.655 329.664C495.295 329.7 494.927 329.744 494.551 329.796C494.175 329.848 493.835 329.914 493.531 329.994C493.343 330.046 493.153 330.122 492.961 330.222C492.773 330.318 492.615 330.452 492.487 330.624C492.363 330.796 492.301 331.014 492.301 331.278C492.301 331.474 492.349 331.67 492.445 331.866C492.545 332.062 492.709 332.224 492.937 332.352C493.165 332.48 493.473 332.544 493.861 332.544ZM503.285 333V329.628C503.285 329.22 503.243 328.856 503.159 328.536C503.079 328.216 502.955 327.944 502.787 327.72C502.623 327.496 502.415 327.326 502.163 327.21C501.915 327.094 501.621 327.036 501.281 327.036C500.929 327.036 500.623 327.098 500.363 327.222C500.107 327.342 499.895 327.512 499.727 327.732C499.563 327.952 499.439 328.214 499.355 328.518C499.275 328.818 499.235 329.146 499.235 329.502L498.689 329.436C498.689 328.736 498.807 328.16 499.043 327.708C499.283 327.252 499.605 326.916 500.009 326.7C500.413 326.48 500.867 326.37 501.371 326.37C501.727 326.37 502.045 326.422 502.325 326.526C502.609 326.63 502.855 326.778 503.063 326.97C503.271 327.158 503.443 327.382 503.579 327.642C503.715 327.898 503.815 328.18 503.879 328.488C503.947 328.796 503.981 329.118 503.981 329.454V333H503.285ZM498.539 333V326.52H499.169V327.978H499.235V333H498.539ZM508.002 333.18C507.39 333.18 506.872 333.03 506.448 332.73C506.028 332.426 505.706 332.016 505.482 331.5C505.262 330.98 505.152 330.396 505.152 329.748C505.152 329.108 505.262 328.53 505.482 328.014C505.702 327.498 506.018 327.09 506.43 326.79C506.846 326.49 507.348 326.34 507.936 326.34C508.54 326.34 509.05 326.488 509.466 326.784C509.882 327.08 510.196 327.486 510.408 328.002C510.62 328.514 510.726 329.096 510.726 329.748C510.726 330.396 510.62 330.978 510.408 331.494C510.196 332.01 509.888 332.42 509.484 332.724C509.08 333.028 508.586 333.18 508.002 333.18ZM508.044 332.52C508.528 332.52 508.93 332.4 509.25 332.16C509.574 331.916 509.814 331.586 509.97 331.17C510.13 330.75 510.21 330.276 510.21 329.748C510.21 329.216 510.13 328.742 509.97 328.326C509.81 327.91 509.57 327.586 509.25 327.354C508.93 327.118 508.532 327 508.056 327C507.564 327 507.158 327.122 506.838 327.366C506.518 327.606 506.28 327.934 506.124 328.35C505.968 328.762 505.89 329.228 505.89 329.748C505.89 330.272 505.97 330.744 506.13 331.164C506.294 331.58 506.534 331.91 506.85 332.154C507.17 332.398 507.568 332.52 508.044 332.52ZM510.21 333V328.008H510.15V324.36H510.84V333H510.21ZM512.64 333V324.18H513.33V333H512.64ZM517.803 333.18C517.183 333.18 516.647 333.042 516.195 332.766C515.743 332.486 515.393 332.092 515.145 331.584C514.897 331.072 514.773 330.468 514.773 329.772C514.773 329.064 514.895 328.454 515.139 327.942C515.387 327.426 515.735 327.03 516.183 326.754C516.635 326.478 517.171 326.34 517.791 326.34C518.419 326.34 518.955 326.484 519.399 326.772C519.847 327.056 520.187 327.468 520.419 328.008C520.655 328.548 520.767 329.198 520.755 329.958H520.035V329.718C520.015 328.83 519.815 328.154 519.435 327.69C519.055 327.226 518.511 326.994 517.803 326.994C517.071 326.994 516.505 327.236 516.105 327.72C515.709 328.2 515.511 328.88 515.511 329.76C515.511 330.632 515.709 331.308 516.105 331.788C516.505 332.268 517.067 332.508 517.791 332.508C518.291 332.508 518.727 332.392 519.099 332.16C519.475 331.924 519.773 331.588 519.993 331.152L520.617 331.428C520.357 331.988 519.981 332.42 519.489 332.724C518.997 333.028 518.435 333.18 517.803 333.18ZM515.247 329.958V329.334H520.365V329.958H515.247Z" fill="black"/>
<line x1="562.061" y1="416.939" x2="615.061" y2="469.939" stroke="#147BFB" stroke-width="3"/>
<line x1="583.061" y1="398.939" x2="636.061" y2="451.939" stroke="#147BFB" stroke-width="3"/>
<rect x="367" y="419" width="5.58682" height="20" fill="#E4E4E4"/>
<rect x="377.832" y="440" width="5.58682" height="20" fill="#147BFB"/>
<rect x="395.123" y="452" width="5.58682" height="20" fill="#E4E4E4"/>
<rect x="406.363" y="474" width="5.58682" height="20" fill="#147BFB"/>
<rect x="417.602" y="487" width="5.58682" height="20" fill="#E4E4E4"/>
<rect x="432.299" y="484" width="5.58682" height="20" fill="#E4E4E4"/>
<rect x="448.725" y="495" width="5.58682" height="20" fill="#147BFB"/>
<rect x="463.422" y="496" width="5.58682" height="20" fill="#E4E4E4"/>
<rect x="478.119" y="491" width="5.58682" height="20" fill="#E4E4E4"/>
<rect x="492.816" y="480" width="5.58682" height="20" fill="#147BFB"/>
<rect x="507.514" y="488" width="5.58682" height="20" fill="#E4E4E4"/>
<rect x="520.48" y="474" width="5.58682" height="20" fill="#147BFB"/>
<rect x="533.449" y="469" width="5.58682" height="20" fill="#147BFB"/>
<rect x="545.553" y="444" width="5.58682" height="20" fill="#E4E4E4"/>
<rect x="553.334" y="412" width="5.58682" height="20" fill="#E4E4E4"/>
<rect x="565.438" y="406" width="5.58682" height="20" fill="#E4E4E4"/>
<rect x="577.541" y="401" width="5.58682" height="20" fill="#147BFB"/>
<rect x="591.373" y="415" width="5.58682" height="20" fill="#E4E4E4"/>
<rect x="603.477" y="443" width="5.58682" height="20" fill="#147BFB"/>
<rect x="617.309" y="452" width="5.58682" height="20" fill="#147BFB"/>
<rect x="632.412" y="440" width="5.58682" height="20" fill="#E4E4E4"/>
<path d="M635 399L626.34 414L643.66 414L635 399ZM636.5 434L636.5 412.5L633.5 412.5L633.5 434L636.5 434Z" fill="#147BFB"/>
</g>
<defs>
<filter id="filter0_d_7_1427" x="340" y="307" width="332" height="256" filterUnits="userSpaceOnUse" color-interpolation-filters="sRGB">
<feFlood flood-opacity="0" result="BackgroundImageFix"/>
<feColorMatrix in="SourceAlpha" type="matrix" values="0 0 0 0 0 0 0 0 0 0 0 0 0 0 0 0 0 0 127 0" result="hardAlpha"/>
<feOffset dy="4"/>
<feGaussianBlur stdDeviation="2"/>
<feComposite in2="hardAlpha" operator="out"/>
<feColorMatrix type="matrix" values="0 0 0 0 0 0 0 0 0 0 0 0 0 0 0 0 0 0 0.05 0"/>
<feBlend mode="normal" in2="BackgroundImageFix" result="effect1_dropShadow_7_1427"/>
<feBlend mode="normal" in="SourceGraphic" in2="effect1_dropShadow_7_1427" result="shape"/>
</filter>
</defs>
</svg>
