<svg width="195" height="33" viewBox="0 0 195 33" fill="none" xmlns="http://www.w3.org/2000/svg">
<path d="M13.6477 8.92045C13.5568 8.00379 13.1667 7.29167 12.4773 6.78409C11.7879 6.27651 10.8523 6.02273 9.67045 6.02273C8.86742 6.02273 8.18939 6.13636 7.63636 6.36364C7.08333 6.58333 6.65909 6.89015 6.36364 7.28409C6.07576 7.67803 5.93182 8.125 5.93182 8.625C5.91667 9.04167 6.00379 9.4053 6.19318 9.71591C6.39015 10.0265 6.65909 10.2955 7 10.5227C7.34091 10.7424 7.73485 10.9356 8.18182 11.1023C8.62879 11.2614 9.10606 11.3977 9.61364 11.5114L11.7045 12.0114C12.7197 12.2386 13.6515 12.5417 14.5 12.9205C15.3485 13.2992 16.0833 13.7652 16.7045 14.3182C17.3258 14.8712 17.8068 15.5227 18.1477 16.2727C18.4962 17.0227 18.6742 17.8826 18.6818 18.8523C18.6742 20.2765 18.3106 21.5114 17.5909 22.5568C16.8788 23.5947 15.8485 24.4015 14.5 24.9773C13.1591 25.5455 11.5417 25.8295 9.64773 25.8295C7.76894 25.8295 6.13258 25.5417 4.73864 24.9659C3.35227 24.3902 2.26894 23.5379 1.48864 22.4091C0.715909 21.2727 0.310606 19.8674 0.272727 18.1932H5.03409C5.08712 18.9735 5.31061 19.625 5.70455 20.1477C6.10606 20.6629 6.64015 21.053 7.30682 21.3182C7.98106 21.5758 8.74242 21.7045 9.59091 21.7045C10.4242 21.7045 11.1477 21.5833 11.7614 21.3409C12.3826 21.0985 12.8636 20.7614 13.2045 20.3295C13.5455 19.8977 13.7159 19.4015 13.7159 18.8409C13.7159 18.3182 13.5606 17.8788 13.25 17.5227C12.947 17.1667 12.5 16.8636 11.9091 16.6136C11.3258 16.3636 10.6098 16.1364 9.76136 15.9318L7.22727 15.2955C5.26515 14.8182 3.71591 14.072 2.57955 13.0568C1.44318 12.0417 0.878788 10.6742 0.886364 8.95454C0.878788 7.54545 1.25379 6.31439 2.01136 5.26136C2.77652 4.20833 3.82576 3.38636 5.15909 2.79545C6.49242 2.20454 8.00758 1.90909 9.70455 1.90909C11.4318 1.90909 12.9394 2.20454 14.2273 2.79545C15.5227 3.38636 16.5303 4.20833 17.25 5.26136C17.9697 6.31439 18.3409 7.53409 18.3636 8.92045H13.6477ZM31.1847 8.04545V11.6818H20.6733V8.04545H31.1847ZM23.0597 3.86364H27.9006V20.1364C27.9006 20.5833 27.9688 20.9318 28.1051 21.1818C28.2415 21.4242 28.4309 21.5947 28.6733 21.6932C28.9233 21.7917 29.2112 21.8409 29.5369 21.8409C29.7642 21.8409 29.9915 21.822 30.2188 21.7841C30.446 21.7386 30.6203 21.7045 30.7415 21.6818L31.5028 25.2841C31.2604 25.3598 30.9195 25.447 30.4801 25.5455C30.0407 25.6515 29.5066 25.7159 28.8778 25.7386C27.7112 25.7841 26.6884 25.6288 25.8097 25.2727C24.9384 24.9167 24.2604 24.3636 23.7756 23.6136C23.2907 22.8636 23.0521 21.9167 23.0597 20.7727V3.86364ZM42.0369 25.8409C40.2718 25.8409 38.7453 25.4659 37.4574 24.7159C36.1771 23.9583 35.1884 22.9053 34.4915 21.5568C33.7945 20.2008 33.446 18.6288 33.446 16.8409C33.446 15.0379 33.7945 13.4621 34.4915 12.1136C35.1884 10.7576 36.1771 9.70454 37.4574 8.95454C38.7453 8.19697 40.2718 7.81818 42.0369 7.81818C43.8021 7.81818 45.3248 8.19697 46.6051 8.95454C47.893 9.70454 48.8854 10.7576 49.5824 12.1136C50.2794 13.4621 50.6278 15.0379 50.6278 16.8409C50.6278 18.6288 50.2794 20.2008 49.5824 21.5568C48.8854 22.9053 47.893 23.9583 46.6051 24.7159C45.3248 25.4659 43.8021 25.8409 42.0369 25.8409ZM42.0597 22.0909C42.8627 22.0909 43.5331 21.8636 44.071 21.4091C44.6089 20.947 45.0142 20.3182 45.2869 19.5227C45.5672 18.7273 45.7074 17.822 45.7074 16.8068C45.7074 15.7917 45.5672 14.8864 45.2869 14.0909C45.0142 13.2955 44.6089 12.6667 44.071 12.2045C43.5331 11.7424 42.8627 11.5114 42.0597 11.5114C41.2491 11.5114 40.5672 11.7424 40.0142 12.2045C39.4688 12.6667 39.0559 13.2955 38.7756 14.0909C38.5028 14.8864 38.3665 15.7917 38.3665 16.8068C38.3665 17.822 38.5028 18.7273 38.7756 19.5227C39.0559 20.3182 39.4688 20.947 40.0142 21.4091C40.5672 21.8636 41.2491 22.0909 42.0597 22.0909ZM57.196 8.04545L60.4006 14.1477L63.6847 8.04545H68.6506L63.5938 16.7727L68.7869 25.5H63.8438L60.4006 19.4659L57.0142 25.5H52.0142L57.196 16.7727L52.196 8.04545H57.196Z" fill="#147BFB"/>
<path d="M76.5369 2.22727V25.5H71.6165V2.22727H76.5369ZM85.3352 15.4091V25.5H80.4943V8.04545H85.108V11.125H85.3125C85.6989 10.1098 86.3466 9.30682 87.2557 8.71591C88.1648 8.11742 89.267 7.81818 90.5625 7.81818C91.7746 7.81818 92.8314 8.08333 93.733 8.61364C94.6345 9.14394 95.3352 9.90151 95.8352 10.8864C96.3352 11.8636 96.5852 13.0303 96.5852 14.3864V25.5H91.7443V15.25C91.7519 14.1818 91.4792 13.3485 90.9261 12.75C90.3731 12.1439 89.6117 11.8409 88.642 11.8409C87.9905 11.8409 87.4148 11.9811 86.9148 12.2614C86.4223 12.5417 86.036 12.9508 85.7557 13.4886C85.483 14.0189 85.3428 14.6591 85.3352 15.4091ZM114.923 13.0227L110.491 13.2955C110.416 12.9167 110.253 12.5758 110.003 12.2727C109.753 11.9621 109.423 11.7159 109.014 11.5341C108.613 11.3447 108.132 11.25 107.571 11.25C106.821 11.25 106.188 11.4091 105.673 11.7273C105.158 12.0379 104.901 12.4545 104.901 12.9773C104.901 13.3939 105.067 13.7462 105.401 14.0341C105.734 14.322 106.306 14.553 107.116 14.7273L110.276 15.3636C111.973 15.7121 113.238 16.2727 114.071 17.0455C114.904 17.8182 115.321 18.8333 115.321 20.0909C115.321 21.2348 114.984 22.2386 114.31 23.1023C113.643 23.9659 112.726 24.6402 111.56 25.125C110.401 25.6023 109.063 25.8409 107.548 25.8409C105.238 25.8409 103.397 25.3598 102.026 24.3977C100.662 23.428 99.8627 22.1098 99.6278 20.4432L104.389 20.1932C104.533 20.8977 104.882 21.4356 105.435 21.8068C105.988 22.1705 106.696 22.3523 107.56 22.3523C108.408 22.3523 109.09 22.1894 109.605 21.8636C110.128 21.5303 110.393 21.1023 110.401 20.5795C110.393 20.1402 110.207 19.7803 109.844 19.5C109.48 19.2121 108.92 18.9924 108.162 18.8409L105.139 18.2386C103.435 17.8977 102.166 17.3068 101.332 16.4659C100.507 15.625 100.094 14.553 100.094 13.25C100.094 12.1288 100.397 11.1629 101.003 10.3523C101.616 9.54167 102.476 8.91667 103.582 8.47727C104.696 8.03788 105.999 7.81818 107.491 7.81818C109.696 7.81818 111.431 8.28409 112.696 9.21591C113.969 10.1477 114.711 11.4167 114.923 13.0227ZM118.369 25.5V8.04545H123.21V25.5H118.369ZM120.801 5.79545C120.081 5.79545 119.464 5.55682 118.949 5.07954C118.441 4.5947 118.188 4.01515 118.188 3.34091C118.188 2.67424 118.441 2.10227 118.949 1.625C119.464 1.14015 120.081 0.897726 120.801 0.897726C121.521 0.897726 122.134 1.14015 122.642 1.625C123.157 2.10227 123.415 2.67424 123.415 3.34091C123.415 4.01515 123.157 4.5947 122.642 5.07954C122.134 5.55682 121.521 5.79545 120.801 5.79545ZM134.952 32.4091C133.384 32.4091 132.039 32.1932 130.918 31.7614C129.804 31.3371 128.918 30.7576 128.259 30.0227C127.599 29.2879 127.171 28.4621 126.974 27.5455L131.452 26.9432C131.588 27.2917 131.804 27.6174 132.099 27.9205C132.395 28.2235 132.785 28.4659 133.27 28.6477C133.762 28.8371 134.361 28.9318 135.065 28.9318C136.118 28.9318 136.986 28.6742 137.668 28.1591C138.357 27.6515 138.702 26.7992 138.702 25.6023V22.4091H138.497C138.285 22.8939 137.967 23.3523 137.543 23.7841C137.118 24.2159 136.573 24.5682 135.906 24.8409C135.24 25.1136 134.444 25.25 133.52 25.25C132.209 25.25 131.016 24.947 129.94 24.3409C128.872 23.7273 128.02 22.7917 127.384 21.5341C126.755 20.2689 126.44 18.6705 126.44 16.7386C126.44 14.7614 126.762 13.1098 127.406 11.7841C128.05 10.4583 128.906 9.46591 129.974 8.80682C131.05 8.14773 132.228 7.81818 133.509 7.81818C134.486 7.81818 135.304 7.98485 135.963 8.31818C136.622 8.64394 137.152 9.05303 137.554 9.54545C137.963 10.0303 138.277 10.5076 138.497 10.9773H138.679V8.04545H143.486V25.6705C143.486 27.1553 143.122 28.3977 142.395 29.3977C141.668 30.3977 140.66 31.1477 139.372 31.6477C138.092 32.1553 136.618 32.4091 134.952 32.4091ZM135.054 21.6136C135.834 21.6136 136.493 21.4205 137.031 21.0341C137.577 20.6402 137.993 20.0795 138.281 19.3523C138.577 18.6174 138.724 17.7386 138.724 16.7159C138.724 15.6932 138.58 14.8068 138.293 14.0568C138.005 13.2992 137.588 12.7121 137.043 12.2955C136.497 11.8788 135.834 11.6705 135.054 11.6705C134.259 11.6705 133.588 11.8864 133.043 12.3182C132.497 12.7424 132.084 13.3333 131.804 14.0909C131.524 14.8485 131.384 15.7235 131.384 16.7159C131.384 17.7235 131.524 18.5947 131.804 19.3295C132.092 20.0568 132.505 20.6212 133.043 21.0227C133.588 21.4167 134.259 21.6136 135.054 21.6136ZM152.179 15.4091V25.5H147.338V2.22727H152.043V11.125H152.247C152.641 10.0947 153.277 9.28788 154.156 8.70454C155.035 8.11364 156.137 7.81818 157.463 7.81818C158.675 7.81818 159.732 8.08333 160.634 8.61364C161.543 9.13636 162.247 9.89015 162.747 10.875C163.255 11.8523 163.505 13.0227 163.497 14.3864V25.5H158.656V15.25C158.664 14.1742 158.391 13.3371 157.838 12.7386C157.293 12.1402 156.527 11.8409 155.543 11.8409C154.884 11.8409 154.3 11.9811 153.793 12.2614C153.293 12.5417 152.899 12.9508 152.611 13.4886C152.33 14.0189 152.187 14.6591 152.179 15.4091ZM176.591 8.04545V11.6818H166.08V8.04545H176.591ZM168.466 3.86364H173.307V20.1364C173.307 20.5833 173.375 20.9318 173.511 21.1818C173.648 21.4242 173.837 21.5947 174.08 21.6932C174.33 21.7917 174.617 21.8409 174.943 21.8409C175.17 21.8409 175.398 21.822 175.625 21.7841C175.852 21.7386 176.027 21.7045 176.148 21.6818L176.909 25.2841C176.667 25.3598 176.326 25.447 175.886 25.5455C175.447 25.6515 174.913 25.7159 174.284 25.7386C173.117 25.7841 172.095 25.6288 171.216 25.2727C170.345 24.9167 169.667 24.3636 169.182 23.6136C168.697 22.8636 168.458 21.9167 168.466 20.7727V3.86364ZM194.048 13.0227L189.616 13.2955C189.541 12.9167 189.378 12.5758 189.128 12.2727C188.878 11.9621 188.548 11.7159 188.139 11.5341C187.738 11.3447 187.257 11.25 186.696 11.25C185.946 11.25 185.313 11.4091 184.798 11.7273C184.283 12.0379 184.026 12.4545 184.026 12.9773C184.026 13.3939 184.192 13.7462 184.526 14.0341C184.859 14.322 185.431 14.553 186.241 14.7273L189.401 15.3636C191.098 15.7121 192.363 16.2727 193.196 17.0455C194.029 17.8182 194.446 18.8333 194.446 20.0909C194.446 21.2348 194.109 22.2386 193.435 23.1023C192.768 23.9659 191.851 24.6402 190.685 25.125C189.526 25.6023 188.188 25.8409 186.673 25.8409C184.363 25.8409 182.522 25.3598 181.151 24.3977C179.787 23.428 178.988 22.1098 178.753 20.4432L183.514 20.1932C183.658 20.8977 184.007 21.4356 184.56 21.8068C185.113 22.1705 185.821 22.3523 186.685 22.3523C187.533 22.3523 188.215 22.1894 188.73 21.8636C189.253 21.5303 189.518 21.1023 189.526 20.5795C189.518 20.1402 189.332 19.7803 188.969 19.5C188.605 19.2121 188.045 18.9924 187.287 18.8409L184.264 18.2386C182.56 17.8977 181.291 17.3068 180.457 16.4659C179.632 15.625 179.219 14.553 179.219 13.25C179.219 12.1288 179.522 11.1629 180.128 10.3523C180.741 9.54167 181.601 8.91667 182.707 8.47727C183.821 8.03788 185.124 7.81818 186.616 7.81818C188.821 7.81818 190.556 8.28409 191.821 9.21591C193.094 10.1477 193.836 11.4167 194.048 13.0227Z" fill="white"/>
</svg>
