<svg width="234" height="47" viewBox="0 0 234 47" fill="none" xmlns="http://www.w3.org/2000/svg">
<path d="M9.15483 8.63778C9.09801 8.06487 8.85417 7.61979 8.4233 7.30256C7.99242 6.98532 7.40767 6.8267 6.66903 6.8267C6.16714 6.8267 5.74337 6.89773 5.39773 7.03977C5.05208 7.17708 4.78693 7.36884 4.60227 7.61506C4.42235 7.86127 4.33239 8.14062 4.33239 8.45312C4.32292 8.71354 4.37737 8.94081 4.49574 9.13494C4.61884 9.32907 4.78693 9.49716 5 9.6392C5.21307 9.77651 5.45928 9.89725 5.73864 10.0014C6.01799 10.1009 6.31629 10.1861 6.63352 10.2571L7.94034 10.5696C8.57481 10.7116 9.1572 10.901 9.6875 11.1378C10.2178 11.3745 10.6771 11.6657 11.0653 12.0114C11.4536 12.357 11.7543 12.7642 11.9673 13.233C12.1851 13.7017 12.2964 14.2391 12.3011 14.8452C12.2964 15.7353 12.0691 16.5071 11.6193 17.1605C11.1742 17.8092 10.5303 18.3134 9.6875 18.6733C8.84943 19.0284 7.83854 19.206 6.65483 19.206C5.48059 19.206 4.45786 19.026 3.58665 18.6662C2.72017 18.3063 2.04309 17.7737 1.5554 17.0682C1.07244 16.358 0.819129 15.4796 0.795455 14.4332H3.77131C3.80445 14.9209 3.94413 15.3281 4.19034 15.6548C4.44129 15.9768 4.77509 16.2206 5.19176 16.3864C5.61316 16.5473 6.08902 16.6278 6.61932 16.6278C7.14015 16.6278 7.59233 16.5521 7.97585 16.4006C8.36411 16.2491 8.66477 16.0384 8.87784 15.7685C9.09091 15.4986 9.19744 15.1884 9.19744 14.8381C9.19744 14.5114 9.10038 14.2367 8.90625 14.0142C8.71686 13.7917 8.4375 13.6023 8.06818 13.446C7.7036 13.2898 7.25616 13.1477 6.72585 13.0199L5.14205 12.6222C3.91572 12.3239 2.94744 11.8575 2.23722 11.223C1.52699 10.5885 1.17424 9.7339 1.17898 8.65909C1.17424 7.77841 1.40862 7.009 1.8821 6.35085C2.36032 5.69271 3.0161 5.17898 3.84943 4.80966C4.68277 4.44034 5.62973 4.25568 6.69034 4.25568C7.76989 4.25568 8.71212 4.44034 9.51705 4.80966C10.3267 5.17898 10.9564 5.69271 11.4062 6.35085C11.8561 7.009 12.0881 7.77131 12.1023 8.63778H9.15483ZM20.1154 8.09091V10.3636H13.5458V8.09091H20.1154ZM15.0373 5.47727H18.0629V15.6477C18.0629 15.9271 18.1055 16.1449 18.1907 16.3011C18.2759 16.4527 18.3943 16.5592 18.5458 16.6207C18.7021 16.6823 18.882 16.7131 19.0856 16.7131C19.2276 16.7131 19.3697 16.7012 19.5117 16.6776C19.6538 16.6491 19.7627 16.6278 19.8384 16.6136L20.3143 18.8651C20.1628 18.9124 19.9497 18.9669 19.6751 19.0284C19.4004 19.0947 19.0666 19.1349 18.6737 19.1491C17.9445 19.1776 17.3053 19.0805 16.756 18.858C16.2115 18.6354 15.7878 18.2898 15.4847 17.821C15.1817 17.3523 15.0326 16.7604 15.0373 16.0455V5.47727ZM26.8981 19.2131C25.7949 19.2131 24.8408 18.9787 24.0359 18.5099C23.2357 18.0365 22.6178 17.3783 22.1822 16.5355C21.7466 15.688 21.5288 14.7055 21.5288 13.5881C21.5288 12.4612 21.7466 11.4763 22.1822 10.6335C22.6178 9.78598 23.2357 9.12784 24.0359 8.65909C24.8408 8.18561 25.7949 7.94886 26.8981 7.94886C28.0013 7.94886 28.953 8.18561 29.7532 8.65909C30.5581 9.12784 31.1784 9.78598 31.614 10.6335C32.0496 11.4763 32.2674 12.4612 32.2674 13.5881C32.2674 14.7055 32.0496 15.688 31.614 16.5355C31.1784 17.3783 30.5581 18.0365 29.7532 18.5099C28.953 18.9787 28.0013 19.2131 26.8981 19.2131ZM26.9123 16.8693C27.4142 16.8693 27.8332 16.7273 28.1694 16.4432C28.5056 16.1544 28.7589 15.7614 28.9293 15.2642C29.1045 14.767 29.1921 14.2012 29.1921 13.5668C29.1921 12.9323 29.1045 12.3665 28.9293 11.8693C28.7589 11.3722 28.5056 10.9792 28.1694 10.6903C27.8332 10.4015 27.4142 10.2571 26.9123 10.2571C26.4057 10.2571 25.9795 10.4015 25.6339 10.6903C25.293 10.9792 25.0349 11.3722 24.8597 11.8693C24.6893 12.3665 24.604 12.9323 24.604 13.5668C24.604 14.2012 24.6893 14.767 24.8597 15.2642C25.0349 15.7614 25.293 16.1544 25.6339 16.4432C25.9795 16.7273 26.4057 16.8693 26.9123 16.8693ZM36.3725 8.09091L38.3754 11.9048L40.4279 8.09091H43.5316L40.3711 13.5455L43.6168 19H40.5273L38.3754 15.2287L36.2589 19H33.1339L36.3725 13.5455L33.2475 8.09091H36.3725Z" fill="#147BFB"/>
<path d="M48.4606 4.45455V19H45.3853V4.45455H48.4606ZM53.9595 12.6932V19H50.9339V8.09091H53.8175V10.0156H53.9453C54.1868 9.38116 54.5916 8.87926 55.1598 8.50994C55.728 8.13589 56.4169 7.94886 57.2266 7.94886C57.9841 7.94886 58.6446 8.11458 59.2081 8.44602C59.7715 8.77746 60.2095 9.25095 60.522 9.86648C60.8345 10.4773 60.9908 11.2064 60.9908 12.054V19H57.9652V12.5938C57.9699 11.9261 57.7995 11.4053 57.4538 11.0312C57.1082 10.6525 56.6323 10.4631 56.0263 10.4631C55.6191 10.4631 55.2592 10.5507 54.9467 10.7259C54.639 10.901 54.3975 11.1567 54.2223 11.4929C54.0518 11.8243 53.9643 12.2244 53.9595 12.6932ZM72.4521 11.2017L69.6822 11.3722C69.6348 11.1354 69.533 10.9223 69.3768 10.733C69.2205 10.5388 69.0146 10.3849 68.7589 10.2713C68.5079 10.1529 68.2073 10.0938 67.8569 10.0938C67.3881 10.0938 66.9928 10.1932 66.6708 10.392C66.3488 10.5862 66.1879 10.8466 66.1879 11.1733C66.1879 11.4337 66.292 11.6539 66.5004 11.8338C66.7087 12.0137 67.0662 12.1581 67.5728 12.267L69.5472 12.6648C70.6078 12.8826 71.3986 13.233 71.9194 13.7159C72.4402 14.1989 72.7006 14.8333 72.7006 15.6193C72.7006 16.3343 72.4899 16.9616 72.0685 17.5014C71.6519 18.0412 71.079 18.4626 70.3498 18.7656C69.6254 19.0639 68.7897 19.2131 67.8427 19.2131C66.3986 19.2131 65.248 18.9124 64.391 18.3111C63.5387 17.705 63.0392 16.8812 62.8924 15.8395L65.8683 15.6832C65.9582 16.1236 66.176 16.4598 66.5217 16.6918C66.8673 16.919 67.31 17.0327 67.8498 17.0327C68.3801 17.0327 68.8062 16.9309 69.1282 16.7273C69.4549 16.5189 69.6206 16.2514 69.6254 15.9247C69.6206 15.6501 69.5046 15.4252 69.2773 15.25C69.0501 15.0701 68.6997 14.9328 68.2262 14.8381L66.337 14.4616C65.2717 14.2486 64.4786 13.8793 63.9577 13.3537C63.4416 12.8281 63.1836 12.1581 63.1836 11.3438C63.1836 10.643 63.373 10.0393 63.7518 9.53267C64.1353 9.02604 64.6727 8.63542 65.364 8.3608C66.06 8.08617 66.8744 7.94886 67.8072 7.94886C69.185 7.94886 70.2693 8.24006 71.06 8.82244C71.8555 9.40483 72.3195 10.1979 72.4521 11.2017ZM74.6058 19V8.09091H77.6314V19H74.6058ZM76.1257 6.68466C75.6759 6.68466 75.29 6.53551 74.968 6.23722C74.6508 5.93419 74.4922 5.57197 74.4922 5.15057C74.4922 4.7339 74.6508 4.37642 74.968 4.07812C75.29 3.77509 75.6759 3.62358 76.1257 3.62358C76.5755 3.62358 76.959 3.77509 77.2763 4.07812C77.5982 4.37642 77.7592 4.7339 77.7592 5.15057C77.7592 5.57197 77.5982 5.93419 77.2763 6.23722C76.959 6.53551 76.5755 6.68466 76.1257 6.68466ZM84.9698 23.3182C83.9897 23.3182 83.1493 23.1832 82.4485 22.9134C81.7525 22.6482 81.1985 22.286 80.7866 21.8267C80.3746 21.3674 80.1071 20.8513 79.984 20.2784L82.7823 19.902C82.8675 20.1198 83.0025 20.3234 83.1871 20.5128C83.3718 20.7022 83.6156 20.8537 83.9187 20.9673C84.2264 21.0857 84.6005 21.1449 85.0408 21.1449C85.699 21.1449 86.2411 20.9839 86.6673 20.6619C87.0981 20.3447 87.3136 19.812 87.3136 19.0639V17.0682H87.1857C87.0531 17.3712 86.8543 17.6577 86.5891 17.9276C86.324 18.1974 85.9831 18.4176 85.5664 18.5881C85.1497 18.7585 84.6526 18.8438 84.0749 18.8438C83.2558 18.8438 82.5101 18.6544 81.8377 18.2756C81.1701 17.892 80.6374 17.3073 80.2397 16.5213C79.8467 15.7306 79.6502 14.7315 79.6502 13.5241C79.6502 12.2884 79.8514 11.2562 80.2539 10.4276C80.6564 9.59896 81.1914 8.97869 81.859 8.56676C82.5314 8.15483 83.2676 7.94886 84.0678 7.94886C84.6786 7.94886 85.19 8.05303 85.6019 8.26136C86.0138 8.46496 86.3453 8.72064 86.5962 9.02841C86.8519 9.33144 87.0484 9.62973 87.1857 9.9233H87.2994V8.09091H90.3036V19.1065C90.3036 20.0346 90.0763 20.8111 89.6218 21.4361C89.1673 22.0611 88.5375 22.5298 87.7326 22.8423C86.9324 23.1596 86.0115 23.3182 84.9698 23.3182ZM85.0337 16.571C85.5214 16.571 85.9334 16.4503 86.2695 16.2088C86.6104 15.9626 86.8709 15.6122 87.0508 15.1577C87.2354 14.6984 87.3278 14.1491 87.3278 13.5099C87.3278 12.8707 87.2378 12.3168 87.0579 11.848C86.878 11.3745 86.6175 11.0076 86.2766 10.7472C85.9357 10.4867 85.5214 10.3565 85.0337 10.3565C84.5366 10.3565 84.1175 10.4915 83.7766 10.7614C83.4357 11.0265 83.1777 11.3958 83.0025 11.8693C82.8273 12.3428 82.7397 12.8897 82.7397 13.5099C82.7397 14.1397 82.8273 14.6842 83.0025 15.1435C83.1824 15.598 83.4405 15.9508 83.7766 16.2017C84.1175 16.4479 84.5366 16.571 85.0337 16.571ZM95.7369 12.6932V19H92.7113V4.45455H95.6516V10.0156H95.7795C96.0257 9.37169 96.4234 8.86742 96.9727 8.50284C97.5219 8.13352 98.2108 7.94886 99.0394 7.94886C99.797 7.94886 100.458 8.11458 101.021 8.44602C101.589 8.77273 102.029 9.24384 102.342 9.85938C102.659 10.4702 102.815 11.2017 102.811 12.054V19H99.7852V12.5938C99.7899 11.9214 99.6194 11.3982 99.2738 11.0241C98.9329 10.6501 98.4547 10.4631 97.8391 10.4631C97.4272 10.4631 97.0626 10.5507 96.7454 10.7259C96.4329 10.901 96.1867 11.1567 96.0067 11.4929C95.8316 11.8243 95.7416 12.2244 95.7369 12.6932ZM110.994 8.09091V10.3636H104.425V8.09091H110.994ZM105.916 5.47727H108.942V15.6477C108.942 15.9271 108.984 16.1449 109.07 16.3011C109.155 16.4527 109.273 16.5592 109.425 16.6207C109.581 16.6823 109.761 16.7131 109.964 16.7131C110.107 16.7131 110.249 16.7012 110.391 16.6776C110.533 16.6491 110.642 16.6278 110.717 16.6136L111.193 18.8651C111.042 18.9124 110.829 18.9669 110.554 19.0284C110.279 19.0947 109.946 19.1349 109.553 19.1491C108.823 19.1776 108.184 19.0805 107.635 18.858C107.09 18.6354 106.667 18.2898 106.364 17.821C106.061 17.3523 105.911 16.7604 105.916 16.0455V5.47727ZM121.905 11.2017L119.135 11.3722C119.088 11.1354 118.986 10.9223 118.83 10.733C118.674 10.5388 118.468 10.3849 118.212 10.2713C117.961 10.1529 117.66 10.0938 117.31 10.0938C116.841 10.0938 116.446 10.1932 116.124 10.392C115.802 10.5862 115.641 10.8466 115.641 11.1733C115.641 11.4337 115.745 11.6539 115.953 11.8338C116.162 12.0137 116.519 12.1581 117.026 12.267L119 12.6648C120.061 12.8826 120.852 13.233 121.373 13.7159C121.893 14.1989 122.154 14.8333 122.154 15.6193C122.154 16.3343 121.943 16.9616 121.522 17.5014C121.105 18.0412 120.532 18.4626 119.803 18.7656C119.078 19.0639 118.243 19.2131 117.296 19.2131C115.852 19.2131 114.701 18.9124 113.844 18.3111C112.992 17.705 112.492 16.8812 112.346 15.8395L115.321 15.6832C115.411 16.1236 115.629 16.4598 115.975 16.6918C116.32 16.919 116.763 17.0327 117.303 17.0327C117.833 17.0327 118.259 16.9309 118.581 16.7273C118.908 16.5189 119.074 16.2514 119.078 15.9247C119.074 15.6501 118.958 15.4252 118.73 15.25C118.503 15.0701 118.153 14.9328 117.679 14.8381L115.79 14.4616C114.725 14.2486 113.932 13.8793 113.411 13.3537C112.895 12.8281 112.637 12.1581 112.637 11.3438C112.637 10.643 112.826 10.0393 113.205 9.53267C113.588 9.02604 114.126 8.63542 114.817 8.3608C115.513 8.08617 116.328 7.94886 117.26 7.94886C118.638 7.94886 119.722 8.24006 120.513 8.82244C121.309 9.40483 121.773 10.1979 121.905 11.2017Z" fill="#171717"/>
<path d="M0.96875 44V36H5.79687V36.8594H1.9375V39.5625H5.54688V40.4219H1.9375V43.1406H5.85938V44H0.96875ZM7.41797 44V38H8.30859V38.9375H8.38672C8.51172 38.6172 8.71354 38.3685 8.99219 38.1914C9.27083 38.0117 9.60547 37.9219 9.99609 37.9219C10.3919 37.9219 10.7214 38.0117 10.9844 38.1914C11.25 38.3685 11.457 38.6172 11.6055 38.9375H11.668C11.8216 38.6276 12.0521 38.3815 12.3594 38.1992C12.6667 38.0143 13.0352 37.9219 13.4648 37.9219C14.0013 37.9219 14.4401 38.0898 14.7812 38.4258C15.1224 38.7591 15.293 39.2786 15.293 39.9844V44H14.3711V39.9844C14.3711 39.5417 14.25 39.2253 14.0078 39.0352C13.7656 38.8451 13.4805 38.75 13.1523 38.75C12.7305 38.75 12.4036 38.8776 12.1719 39.1328C11.9401 39.3854 11.8242 39.7057 11.8242 40.0937V44H10.8867V39.8906C10.8867 39.5495 10.776 39.2747 10.5547 39.0664C10.3333 38.8555 10.0482 38.75 9.69922 38.75C9.45964 38.75 9.23568 38.8138 9.02734 38.9414C8.82161 39.069 8.65495 39.2461 8.52734 39.4727C8.40234 39.6966 8.33984 39.9557 8.33984 40.25V44H7.41797ZM16.9785 46.25V38H17.8691V38.9531H17.9785C18.0462 38.849 18.14 38.7161 18.2598 38.5547C18.3822 38.3906 18.5566 38.2448 18.7832 38.1172C19.0124 37.987 19.3223 37.9219 19.7129 37.9219C20.2181 37.9219 20.6634 38.0482 21.0488 38.3008C21.4342 38.5534 21.735 38.9115 21.9512 39.375C22.1673 39.8385 22.2754 40.3854 22.2754 41.0156C22.2754 41.651 22.1673 42.2018 21.9512 42.668C21.735 43.1315 21.4355 43.4909 21.0527 43.7461C20.6699 43.9987 20.2285 44.125 19.7285 44.125C19.3431 44.125 19.0345 44.0612 18.8027 43.9336C18.571 43.8034 18.3926 43.6562 18.2676 43.4922C18.1426 43.3255 18.0462 43.1875 17.9785 43.0781H17.9004V46.25H16.9785ZM17.8848 41C17.8848 41.4531 17.9512 41.8529 18.084 42.1992C18.2168 42.543 18.4108 42.8125 18.666 43.0078C18.9212 43.2005 19.2337 43.2969 19.6035 43.2969C19.9889 43.2969 20.3105 43.1953 20.5684 42.9922C20.8288 42.7865 21.0241 42.5104 21.1543 42.1641C21.2871 41.8151 21.3535 41.4271 21.3535 41C21.3535 40.5781 21.2884 40.1979 21.1582 39.8594C21.0306 39.5182 20.8366 39.2487 20.5762 39.0508C20.3184 38.8503 19.9941 38.75 19.6035 38.75C19.2285 38.75 18.9134 38.8451 18.6582 39.0352C18.403 39.2227 18.2103 39.4857 18.0801 39.8242C17.9499 40.1602 17.8848 40.5521 17.8848 41ZM26.1191 44.125C25.5775 44.125 25.1022 43.9961 24.6934 43.7383C24.2871 43.4805 23.9694 43.1198 23.7402 42.6562C23.5137 42.1927 23.4004 41.651 23.4004 41.0312C23.4004 40.4062 23.5137 39.8607 23.7402 39.3945C23.9694 38.9284 24.2871 38.5664 24.6934 38.3086C25.1022 38.0508 25.5775 37.9219 26.1191 37.9219C26.6608 37.9219 27.1348 38.0508 27.541 38.3086C27.9499 38.5664 28.2676 38.9284 28.4941 39.3945C28.7233 39.8607 28.8379 40.4062 28.8379 41.0312C28.8379 41.651 28.7233 42.1927 28.4941 42.6562C28.2676 43.1198 27.9499 43.4805 27.541 43.7383C27.1348 43.9961 26.6608 44.125 26.1191 44.125ZM26.1191 43.2969C26.5306 43.2969 26.8691 43.1914 27.1348 42.9805C27.4004 42.7695 27.597 42.4922 27.7246 42.1484C27.8522 41.8047 27.916 41.4323 27.916 41.0312C27.916 40.6302 27.8522 40.2565 27.7246 39.9102C27.597 39.5638 27.4004 39.2839 27.1348 39.0703C26.8691 38.8568 26.5306 38.75 26.1191 38.75C25.7077 38.75 25.3691 38.8568 25.1035 39.0703C24.8379 39.2839 24.6413 39.5638 24.5137 39.9102C24.3861 40.2565 24.3223 40.6302 24.3223 41.0312C24.3223 41.4323 24.3861 41.8047 24.5137 42.1484C24.6413 42.4922 24.8379 42.7695 25.1035 42.9805C25.3691 43.1914 25.7077 43.2969 26.1191 43.2969ZM31.4004 44L29.5723 38H30.541L31.8379 42.5938H31.9004L33.1816 38H34.166L35.4316 42.5781H35.4941L36.791 38H37.7598L35.9316 44H35.0254L33.7129 39.3906H33.6191L32.3066 44H31.4004ZM41.29 44.125C40.7119 44.125 40.2132 43.9974 39.7939 43.7422C39.3773 43.4844 39.0557 43.125 38.8291 42.6641C38.6051 42.2005 38.4932 41.6615 38.4932 41.0469C38.4932 40.4323 38.6051 39.8906 38.8291 39.4219C39.0557 38.9505 39.3708 38.5833 39.7744 38.3203C40.1807 38.0547 40.6546 37.9219 41.1963 37.9219C41.5088 37.9219 41.8174 37.974 42.1221 38.0781C42.4268 38.1823 42.7041 38.3516 42.9541 38.5859C43.2041 38.8177 43.4033 39.125 43.5518 39.5078C43.7002 39.8906 43.7744 40.362 43.7744 40.9219V41.3125H39.1494V40.5156H42.8369C42.8369 40.1771 42.7692 39.875 42.6338 39.6094C42.501 39.3437 42.3109 39.1341 42.0635 38.9805C41.8187 38.8268 41.5296 38.75 41.1963 38.75C40.8291 38.75 40.5114 38.8411 40.2432 39.0234C39.9775 39.2031 39.7731 39.4375 39.6299 39.7266C39.4867 40.0156 39.415 40.3255 39.415 40.6562V41.1875C39.415 41.6406 39.4932 42.0247 39.6494 42.3398C39.8083 42.6523 40.0283 42.8906 40.3096 43.0547C40.5908 43.2161 40.9176 43.2969 41.29 43.2969C41.5322 43.2969 41.751 43.263 41.9463 43.1953C42.1442 43.125 42.3148 43.0208 42.458 42.8828C42.6012 42.7422 42.7119 42.5677 42.79 42.3594L43.6807 42.6094C43.5869 42.9115 43.4294 43.1771 43.208 43.4062C42.9867 43.6328 42.7132 43.8099 42.3877 43.9375C42.0622 44.0625 41.6963 44.125 41.29 44.125ZM45.1768 44V38H46.0674V38.9062H46.1299C46.2393 38.6094 46.4372 38.3685 46.7236 38.1836C47.0101 37.9987 47.333 37.9062 47.6924 37.9062C47.7601 37.9062 47.8447 37.9076 47.9463 37.9102C48.0479 37.9128 48.1247 37.9167 48.1768 37.9219V38.8594C48.1455 38.8516 48.0739 38.8398 47.9619 38.8242C47.8525 38.806 47.7367 38.7969 47.6143 38.7969C47.3226 38.7969 47.0622 38.8581 46.833 38.9805C46.6064 39.1003 46.4268 39.2669 46.2939 39.4805C46.1637 39.6914 46.0986 39.9323 46.0986 40.2031V44H45.1768ZM49.2695 44V38H50.1914V44H49.2695ZM49.7383 37C49.5586 37 49.4036 36.9388 49.2734 36.8164C49.1458 36.694 49.082 36.5469 49.082 36.375C49.082 36.2031 49.1458 36.056 49.2734 35.9336C49.4036 35.8112 49.5586 35.75 49.7383 35.75C49.918 35.75 50.0716 35.8112 50.1992 35.9336C50.3294 36.056 50.3945 36.2031 50.3945 36.375C50.3945 36.5469 50.3294 36.694 50.1992 36.8164C50.0716 36.9388 49.918 37 49.7383 37ZM52.8018 40.3906V44H51.8799V38H52.7705V38.9375H52.8486C52.9893 38.6328 53.2028 38.388 53.4893 38.2031C53.7757 38.0156 54.1455 37.9219 54.5986 37.9219C55.0049 37.9219 55.3604 38.0052 55.665 38.1719C55.9697 38.3359 56.2067 38.5859 56.376 38.9219C56.5452 39.2552 56.6299 39.6771 56.6299 40.1875V44H55.708V40.25C55.708 39.7786 55.5856 39.4115 55.3408 39.1484C55.096 38.8828 54.7601 38.75 54.333 38.75C54.0387 38.75 53.7757 38.8138 53.5439 38.9414C53.3148 39.069 53.1338 39.2552 53.001 39.5C52.8682 39.7448 52.8018 40.0417 52.8018 40.3906ZM60.7363 46.375C60.291 46.375 59.9082 46.3177 59.5879 46.2031C59.2676 46.0911 59.0007 45.9427 58.7871 45.7578C58.5762 45.5755 58.4082 45.3802 58.2832 45.1719L59.0176 44.6563C59.1009 44.7656 59.2064 44.8906 59.334 45.0312C59.4616 45.1745 59.6361 45.2982 59.8574 45.4023C60.0814 45.5091 60.3743 45.5625 60.7363 45.5625C61.2207 45.5625 61.6204 45.4453 61.9355 45.2109C62.2507 44.9766 62.4082 44.6094 62.4082 44.1094V42.8906H62.3301C62.2624 43 62.166 43.1354 62.041 43.2969C61.9186 43.4557 61.7415 43.5977 61.5098 43.7227C61.2806 43.8451 60.9707 43.9062 60.5801 43.9062C60.0957 43.9062 59.6608 43.7917 59.2754 43.5625C58.8926 43.3333 58.5892 43 58.3652 42.5625C58.1439 42.125 58.0332 41.5937 58.0332 40.9687C58.0332 40.3542 58.1413 39.819 58.3574 39.3633C58.5736 38.9049 58.8743 38.5508 59.2598 38.3008C59.6452 38.0482 60.0905 37.9219 60.5957 37.9219C60.9863 37.9219 61.2962 37.987 61.5254 38.1172C61.7572 38.2448 61.9342 38.3906 62.0566 38.5547C62.1816 38.7161 62.278 38.849 62.3457 38.9531H62.4395V38H63.3301V44.1719C63.3301 44.6875 63.2129 45.1068 62.9785 45.4297C62.7467 45.7552 62.4342 45.9935 62.041 46.1445C61.6504 46.2982 61.2155 46.375 60.7363 46.375ZM60.7051 43.0781C61.0749 43.0781 61.3874 42.9935 61.6426 42.8242C61.8978 42.6549 62.0918 42.4115 62.2246 42.0938C62.3574 41.776 62.4238 41.3958 62.4238 40.9531C62.4238 40.5208 62.3587 40.1393 62.2285 39.8086C62.0983 39.4779 61.9056 39.2187 61.6504 39.0312C61.3952 38.8437 61.0801 38.75 60.7051 38.75C60.3145 38.75 59.9889 38.849 59.7285 39.0469C59.4707 39.2448 59.2767 39.5104 59.1465 39.8438C59.0189 40.1771 58.9551 40.5469 58.9551 40.9531C58.9551 41.3698 59.0202 41.7383 59.1504 42.0586C59.2832 42.3763 59.4785 42.6263 59.7363 42.8086C59.9967 42.9883 60.3197 43.0781 60.7051 43.0781ZM67.7988 36.8594V36H73.7988V36.8594H71.2832V44H70.3145V36.8594H67.7988ZM74.5459 44V38H75.4365V38.9062H75.499C75.6084 38.6094 75.8063 38.3685 76.0928 38.1836C76.3792 37.9987 76.7021 37.9062 77.0615 37.9062C77.1292 37.9062 77.2139 37.9076 77.3154 37.9102C77.417 37.9128 77.4938 37.9167 77.5459 37.9219V38.8594C77.5146 38.8516 77.443 38.8398 77.3311 38.8242C77.2217 38.806 77.1058 38.7969 76.9834 38.7969C76.6917 38.7969 76.4313 38.8581 76.2021 38.9805C75.9756 39.1003 75.7959 39.2669 75.6631 39.4805C75.5329 39.6914 75.4678 39.9323 75.4678 40.2031V44H74.5459ZM80.4043 44.1406C80.0241 44.1406 79.679 44.069 79.3691 43.9258C79.0592 43.7799 78.8132 43.5703 78.6309 43.2969C78.4486 43.0208 78.3574 42.6875 78.3574 42.2969C78.3574 41.9531 78.4251 41.6745 78.5605 41.4609C78.696 41.2448 78.877 41.0755 79.1035 40.9531C79.3301 40.8307 79.5801 40.7396 79.8535 40.6797C80.1296 40.6172 80.4069 40.5677 80.6855 40.5313C81.0501 40.4844 81.3457 40.4492 81.5723 40.4258C81.8014 40.3997 81.9681 40.3568 82.0723 40.2969C82.179 40.237 82.2324 40.1328 82.2324 39.9844V39.9531C82.2324 39.5677 82.127 39.2682 81.916 39.0547C81.7077 38.8411 81.3913 38.7344 80.9668 38.7344C80.5267 38.7344 80.1816 38.8307 79.9316 39.0234C79.6816 39.2161 79.5059 39.4219 79.4043 39.6406L78.5293 39.3281C78.6855 38.9635 78.8939 38.6797 79.1543 38.4766C79.4173 38.2708 79.7038 38.1276 80.0137 38.0469C80.3262 37.9635 80.6335 37.9219 80.9355 37.9219C81.1283 37.9219 81.3496 37.9453 81.5996 37.9922C81.8522 38.0365 82.0957 38.1289 82.3301 38.2695C82.5671 38.4102 82.7637 38.6224 82.9199 38.9062C83.0762 39.1901 83.1543 39.5703 83.1543 40.0469V44H82.2324V43.1875H82.1855C82.123 43.3177 82.0189 43.457 81.873 43.6055C81.7272 43.7539 81.5332 43.8802 81.291 43.9844C81.0488 44.0885 80.7533 44.1406 80.4043 44.1406ZM80.5449 43.3125C80.9095 43.3125 81.2168 43.2409 81.4668 43.0977C81.7194 42.9544 81.9095 42.7695 82.0371 42.543C82.1673 42.3164 82.2324 42.0781 82.2324 41.8281V40.9844C82.1934 41.0312 82.1074 41.0742 81.9746 41.1133C81.8444 41.1497 81.6934 41.1823 81.5215 41.2109C81.3522 41.237 81.1868 41.2604 81.0254 41.2812C80.8665 41.2995 80.7376 41.3151 80.6387 41.3281C80.3991 41.3594 80.1751 41.4102 79.9668 41.4805C79.7611 41.5482 79.5944 41.651 79.4668 41.7891C79.3418 41.9245 79.2793 42.1094 79.2793 42.3437C79.2793 42.6641 79.3978 42.9062 79.6348 43.0703C79.8743 43.2318 80.1777 43.3125 80.5449 43.3125ZM87.1025 44.125C86.6025 44.125 86.1611 43.9987 85.7783 43.7461C85.3955 43.4909 85.096 43.1315 84.8799 42.668C84.6637 42.2018 84.5557 41.651 84.5557 41.0156C84.5557 40.3854 84.6637 39.8385 84.8799 39.375C85.096 38.9115 85.3968 38.5534 85.7822 38.3008C86.1676 38.0482 86.613 37.9219 87.1182 37.9219C87.5088 37.9219 87.8174 37.987 88.0439 38.1172C88.2731 38.2448 88.4476 38.3906 88.5674 38.5547C88.6898 38.7161 88.7848 38.849 88.8525 38.9531H88.9307V36H89.8525V44H88.9619V43.0781H88.8525C88.7848 43.1875 88.6885 43.3255 88.5635 43.4922C88.4385 43.6562 88.2601 43.8034 88.0283 43.9336C87.7965 44.0612 87.488 44.125 87.1025 44.125ZM87.2275 43.2969C87.5973 43.2969 87.9098 43.2005 88.165 43.0078C88.4202 42.8125 88.6143 42.543 88.7471 42.1992C88.8799 41.8529 88.9463 41.4531 88.9463 41C88.9463 40.5521 88.8812 40.1602 88.751 39.8242C88.6208 39.4857 88.4281 39.2227 88.1729 39.0352C87.9176 38.8451 87.6025 38.75 87.2275 38.75C86.8369 38.75 86.5114 38.8503 86.251 39.0508C85.9932 39.2487 85.7992 39.5182 85.6689 39.8594C85.5413 40.1979 85.4775 40.5781 85.4775 41C85.4775 41.4271 85.5426 41.8151 85.6729 42.1641C85.8057 42.5104 86.001 42.7865 86.2588 42.9922C86.5192 43.1953 86.8421 43.2969 87.2275 43.2969ZM94.1846 44.125C93.6064 44.125 93.1077 43.9974 92.6885 43.7422C92.2718 43.4844 91.9502 43.125 91.7236 42.6641C91.4997 42.2005 91.3877 41.6615 91.3877 41.0469C91.3877 40.4323 91.4997 39.8906 91.7236 39.4219C91.9502 38.9505 92.2653 38.5833 92.6689 38.3203C93.0752 38.0547 93.5492 37.9219 94.0908 37.9219C94.4033 37.9219 94.7119 37.974 95.0166 38.0781C95.3213 38.1823 95.5986 38.3516 95.8486 38.5859C96.0986 38.8177 96.2979 39.125 96.4463 39.5078C96.5947 39.8906 96.6689 40.362 96.6689 40.9219V41.3125H92.0439V40.5156H95.7314C95.7314 40.1771 95.6637 39.875 95.5283 39.6094C95.3955 39.3437 95.2054 39.1341 94.958 38.9805C94.7132 38.8268 94.4242 38.75 94.0908 38.75C93.7236 38.75 93.4059 38.8411 93.1377 39.0234C92.8721 39.2031 92.6676 39.4375 92.5244 39.7266C92.3812 40.0156 92.3096 40.3255 92.3096 40.6562V41.1875C92.3096 41.6406 92.3877 42.0247 92.5439 42.3398C92.7028 42.6523 92.9229 42.8906 93.2041 43.0547C93.4854 43.2161 93.8122 43.2969 94.1846 43.2969C94.4268 43.2969 94.6455 43.263 94.8408 43.1953C95.0387 43.125 95.2093 43.0208 95.3525 42.8828C95.4958 42.7422 95.6064 42.5677 95.6846 42.3594L96.5752 42.6094C96.4814 42.9115 96.3239 43.1771 96.1025 43.4062C95.8812 43.6328 95.6077 43.8099 95.2822 43.9375C94.9567 44.0625 94.5908 44.125 94.1846 44.125ZM98.0713 44V38H98.9619V38.9062H99.0244C99.1338 38.6094 99.3317 38.3685 99.6182 38.1836C99.9046 37.9987 100.228 37.9062 100.587 37.9062C100.655 37.9062 100.739 37.9076 100.841 37.9102C100.942 37.9128 101.019 37.9167 101.071 37.9219V38.8594C101.04 38.8516 100.968 38.8398 100.856 38.8242C100.747 38.806 100.631 38.7969 100.509 38.7969C100.217 38.7969 99.9567 38.8581 99.7275 38.9805C99.501 39.1003 99.3213 39.2669 99.1885 39.4805C99.0583 39.6914 98.9932 39.9323 98.9932 40.2031V44H98.0713ZM106.414 39.3437L105.586 39.5781C105.534 39.4401 105.457 39.306 105.355 39.1758C105.257 39.043 105.121 38.9336 104.949 38.8477C104.777 38.7617 104.557 38.7187 104.289 38.7187C103.922 38.7187 103.616 38.8034 103.371 38.9727C103.129 39.1393 103.008 39.3516 103.008 39.6094C103.008 39.8385 103.091 40.0195 103.258 40.1523C103.424 40.2852 103.685 40.3958 104.039 40.4844L104.93 40.7031C105.466 40.8333 105.866 41.0326 106.129 41.3008C106.392 41.5664 106.523 41.9089 106.523 42.3281C106.523 42.6719 106.424 42.9792 106.227 43.25C106.031 43.5208 105.758 43.7344 105.406 43.8906C105.055 44.0469 104.646 44.125 104.18 44.125C103.568 44.125 103.061 43.9922 102.66 43.7266C102.259 43.4609 102.005 43.0729 101.898 42.5625L102.773 42.3437C102.857 42.6667 103.014 42.9089 103.246 43.0703C103.48 43.2318 103.786 43.3125 104.164 43.3125C104.594 43.3125 104.935 43.2214 105.188 43.0391C105.443 42.8542 105.57 42.6328 105.57 42.375C105.57 42.1667 105.497 41.9922 105.352 41.8516C105.206 41.7083 104.982 41.6016 104.68 41.5312L103.68 41.2969C103.13 41.1667 102.727 40.9648 102.469 40.6914C102.214 40.4154 102.086 40.0703 102.086 39.6562C102.086 39.3177 102.181 39.0182 102.371 38.7578C102.564 38.4974 102.826 38.293 103.156 38.1445C103.49 37.9961 103.867 37.9219 104.289 37.9219C104.883 37.9219 105.349 38.0521 105.688 38.3125C106.029 38.5729 106.271 38.9167 106.414 39.3437ZM112.364 44L110.536 38H111.505L112.802 42.5938H112.864L114.146 38H115.13L116.396 42.5781H116.458L117.755 38H118.724L116.896 44H115.989L114.677 39.3906H114.583L113.271 44H112.364ZM119.942 44V38H120.864V44H119.942ZM120.411 37C120.231 37 120.076 36.9388 119.946 36.8164C119.819 36.694 119.755 36.5469 119.755 36.375C119.755 36.2031 119.819 36.056 119.946 35.9336C120.076 35.8112 120.231 35.75 120.411 35.75C120.591 35.75 120.744 35.8112 120.872 35.9336C121.002 36.056 121.067 36.2031 121.067 36.375C121.067 36.5469 121.002 36.694 120.872 36.8164C120.744 36.9388 120.591 37 120.411 37ZM125.162 38V38.7812H122.053V38H125.162ZM122.959 36.5625H123.881V42.2812C123.881 42.5417 123.919 42.737 123.994 42.8672C124.072 42.9948 124.171 43.0807 124.291 43.125C124.413 43.1667 124.542 43.1875 124.678 43.1875C124.779 43.1875 124.863 43.1823 124.928 43.1719C124.993 43.1589 125.045 43.1484 125.084 43.1406L125.271 43.9687C125.209 43.9922 125.122 44.0156 125.01 44.0391C124.898 44.0651 124.756 44.0781 124.584 44.0781C124.324 44.0781 124.068 44.0221 123.818 43.9102C123.571 43.7982 123.365 43.6276 123.201 43.3984C123.04 43.1693 122.959 42.8802 122.959 42.5312V36.5625ZM127.6 40.3906V44H126.678V36H127.6V38.9375H127.678C127.818 38.6276 128.029 38.3815 128.311 38.1992C128.594 38.0143 128.972 37.9219 129.443 37.9219C129.852 37.9219 130.21 38.0039 130.518 38.168C130.825 38.3294 131.063 38.5781 131.232 38.9141C131.404 39.2474 131.49 39.6719 131.49 40.1875V44H130.568V40.25C130.568 39.7734 130.445 39.4049 130.197 39.1445C129.952 38.8815 129.613 38.75 129.178 38.75C128.876 38.75 128.605 38.8138 128.365 38.9414C128.128 39.069 127.941 39.2552 127.803 39.5C127.667 39.7448 127.6 40.0417 127.6 40.3906ZM137.364 36V44H136.396V36H137.364ZM140.104 40.3906V44H139.182V38H140.072V38.9375H140.15C140.291 38.6328 140.505 38.388 140.791 38.2031C141.077 38.0156 141.447 37.9219 141.9 37.9219C142.307 37.9219 142.662 38.0052 142.967 38.1719C143.271 38.3359 143.508 38.5859 143.678 38.9219C143.847 39.2552 143.932 39.6771 143.932 40.1875V44H143.01V40.25C143.01 39.7786 142.887 39.4115 142.643 39.1484C142.398 38.8828 142.062 38.75 141.635 38.75C141.34 38.75 141.077 38.8138 140.846 38.9414C140.617 39.069 140.436 39.2552 140.303 39.5C140.17 39.7448 140.104 40.0417 140.104 40.3906ZM149.866 39.3437L149.038 39.5781C148.986 39.4401 148.909 39.306 148.808 39.1758C148.709 39.043 148.573 38.9336 148.401 38.8477C148.229 38.7617 148.009 38.7187 147.741 38.7187C147.374 38.7187 147.068 38.8034 146.823 38.9727C146.581 39.1393 146.46 39.3516 146.46 39.6094C146.46 39.8385 146.543 40.0195 146.71 40.1523C146.877 40.2852 147.137 40.3958 147.491 40.4844L148.382 40.7031C148.918 40.8333 149.318 41.0326 149.581 41.3008C149.844 41.5664 149.976 41.9089 149.976 42.3281C149.976 42.6719 149.877 42.9792 149.679 43.25C149.483 43.5208 149.21 43.7344 148.858 43.8906C148.507 44.0469 148.098 44.125 147.632 44.125C147.02 44.125 146.513 43.9922 146.112 43.7266C145.711 43.4609 145.457 43.0729 145.351 42.5625L146.226 42.3437C146.309 42.6667 146.466 42.9089 146.698 43.0703C146.933 43.2318 147.239 43.3125 147.616 43.3125C148.046 43.3125 148.387 43.2214 148.64 43.0391C148.895 42.8542 149.022 42.6328 149.022 42.375C149.022 42.1667 148.95 41.9922 148.804 41.8516C148.658 41.7083 148.434 41.6016 148.132 41.5312L147.132 41.2969C146.582 41.1667 146.179 40.9648 145.921 40.6914C145.666 40.4154 145.538 40.0703 145.538 39.6562C145.538 39.3177 145.633 39.0182 145.823 38.7578C146.016 38.4974 146.278 38.293 146.608 38.1445C146.942 37.9961 147.319 37.9219 147.741 37.9219C148.335 37.9219 148.801 38.0521 149.14 38.3125C149.481 38.5729 149.723 38.9167 149.866 39.3437ZM151.363 44V38H152.285V44H151.363ZM151.832 37C151.652 37 151.497 36.9388 151.367 36.8164C151.24 36.694 151.176 36.5469 151.176 36.375C151.176 36.2031 151.24 36.056 151.367 35.9336C151.497 35.8112 151.652 35.75 151.832 35.75C152.012 35.75 152.165 35.8112 152.293 35.9336C152.423 36.056 152.488 36.2031 152.488 36.375C152.488 36.5469 152.423 36.694 152.293 36.8164C152.165 36.9388 152.012 37 151.832 37ZM156.396 46.375C155.95 46.375 155.567 46.3177 155.247 46.2031C154.927 46.0911 154.66 45.9427 154.446 45.7578C154.235 45.5755 154.067 45.3802 153.942 45.1719L154.677 44.6563C154.76 44.7656 154.866 44.8906 154.993 45.0312C155.121 45.1745 155.295 45.2982 155.517 45.4023C155.741 45.5091 156.034 45.5625 156.396 45.5625C156.88 45.5625 157.28 45.4453 157.595 45.2109C157.91 44.9766 158.067 44.6094 158.067 44.1094V42.8906H157.989C157.922 43 157.825 43.1354 157.7 43.2969C157.578 43.4557 157.401 43.5977 157.169 43.7227C156.94 43.8451 156.63 43.9062 156.239 43.9062C155.755 43.9062 155.32 43.7917 154.935 43.5625C154.552 43.3333 154.248 43 154.024 42.5625C153.803 42.125 153.692 41.5937 153.692 40.9687C153.692 40.3542 153.8 39.819 154.017 39.3633C154.233 38.9049 154.534 38.5508 154.919 38.3008C155.304 38.0482 155.75 37.9219 156.255 37.9219C156.646 37.9219 156.955 37.987 157.185 38.1172C157.416 38.2448 157.593 38.3906 157.716 38.5547C157.841 38.7161 157.937 38.849 158.005 38.9531H158.099V38H158.989V44.1719C158.989 44.6875 158.872 45.1068 158.638 45.4297C158.406 45.7552 158.093 45.9935 157.7 46.1445C157.31 46.2982 156.875 46.375 156.396 46.375ZM156.364 43.0781C156.734 43.0781 157.047 42.9935 157.302 42.8242C157.557 42.6549 157.751 42.4115 157.884 42.0938C158.017 41.776 158.083 41.3958 158.083 40.9531C158.083 40.5208 158.018 40.1393 157.888 39.8086C157.757 39.4779 157.565 39.2187 157.31 39.0312C157.054 38.8437 156.739 38.75 156.364 38.75C155.974 38.75 155.648 38.849 155.388 39.0469C155.13 39.2448 154.936 39.5104 154.806 39.8438C154.678 40.1771 154.614 40.5469 154.614 40.9531C154.614 41.3698 154.679 41.7383 154.81 42.0586C154.942 42.3763 155.138 42.6263 155.396 42.8086C155.656 42.9883 155.979 43.0781 156.364 43.0781ZM161.599 40.3906V44H160.677V36H161.599V38.9375H161.677C161.817 38.6276 162.028 38.3815 162.31 38.1992C162.593 38.0143 162.971 37.9219 163.442 37.9219C163.851 37.9219 164.209 38.0039 164.517 38.168C164.824 38.3294 165.062 38.5781 165.231 38.9141C165.403 39.2474 165.489 39.6719 165.489 40.1875V44H164.567V40.25C164.567 39.7734 164.444 39.4049 164.196 39.1445C163.951 38.8815 163.612 38.75 163.177 38.75C162.875 38.75 162.604 38.8138 162.364 38.9414C162.127 39.069 161.94 39.2552 161.802 39.5C161.666 39.7448 161.599 40.0417 161.599 40.3906ZM169.785 38V38.7812H166.676V38H169.785ZM167.582 36.5625H168.504V42.2812C168.504 42.5417 168.542 42.737 168.617 42.8672C168.695 42.9948 168.794 43.0807 168.914 43.125C169.036 43.1667 169.165 43.1875 169.301 43.1875C169.402 43.1875 169.486 43.1823 169.551 43.1719C169.616 43.1589 169.668 43.1484 169.707 43.1406L169.895 43.9687C169.832 43.9922 169.745 44.0156 169.633 44.0391C169.521 44.0651 169.379 44.0781 169.207 44.0781C168.947 44.0781 168.691 44.0221 168.441 43.9102C168.194 43.7982 167.988 43.6276 167.824 43.3984C167.663 43.1693 167.582 42.8802 167.582 42.5312V36.5625ZM173.844 38V38.7812H170.609V38H173.844ZM171.578 44V37.1719C171.578 36.8281 171.659 36.5417 171.82 36.3125C171.982 36.0833 172.191 35.9115 172.449 35.7969C172.707 35.6823 172.979 35.625 173.266 35.625C173.492 35.625 173.677 35.6432 173.82 35.6797C173.964 35.7161 174.07 35.75 174.141 35.7812L173.875 36.5781C173.828 36.5625 173.763 36.543 173.68 36.5195C173.599 36.4961 173.492 36.4844 173.359 36.4844C173.055 36.4844 172.835 36.5612 172.699 36.7148C172.566 36.8685 172.5 37.0937 172.5 37.3906V44H171.578ZM178.917 41.5469V38H179.839V44H178.917V42.9844H178.854C178.714 43.2891 178.495 43.5482 178.198 43.7617C177.901 43.9727 177.526 44.0781 177.073 44.0781C176.698 44.0781 176.365 43.9961 176.073 43.832C175.782 43.6654 175.552 43.4154 175.386 43.082C175.219 42.7461 175.136 42.3229 175.136 41.8125V38H176.058V41.75C176.058 42.1875 176.18 42.5365 176.425 42.7969C176.672 43.0573 176.987 43.1875 177.37 43.1875C177.599 43.1875 177.832 43.1289 178.069 43.0117C178.309 42.8945 178.509 42.7148 178.671 42.4727C178.835 42.2305 178.917 41.9219 178.917 41.5469ZM182.449 36V44H181.527V36H182.449ZM187.356 44V36H190.06C190.687 36 191.2 36.1133 191.599 36.3398C192 36.5638 192.297 36.8672 192.489 37.25C192.682 37.6328 192.778 38.0599 192.778 38.5312C192.778 39.0026 192.682 39.431 192.489 39.8164C192.299 40.2018 192.005 40.5091 191.606 40.7383C191.208 40.9648 190.698 41.0781 190.075 41.0781H188.138V40.2188H190.044C190.474 40.2188 190.819 40.1445 191.079 39.9961C191.34 39.8477 191.528 39.6471 191.646 39.3945C191.765 39.1393 191.825 38.8516 191.825 38.5312C191.825 38.2109 191.765 37.9245 191.646 37.6719C191.528 37.4193 191.338 37.2214 191.075 37.0781C190.812 36.9323 190.463 36.8594 190.028 36.8594H188.325V44H187.356ZM194.214 44V38H195.104V38.9062H195.167C195.276 38.6094 195.474 38.3685 195.761 38.1836C196.047 37.9987 196.37 37.9062 196.729 37.9062C196.797 37.9062 196.882 37.9076 196.983 37.9102C197.085 37.9128 197.162 37.9167 197.214 37.9219V38.8594C197.183 38.8516 197.111 38.8398 196.999 38.8242C196.89 38.806 196.774 38.7969 196.651 38.7969C196.36 38.7969 196.099 38.8581 195.87 38.9805C195.644 39.1003 195.464 39.2669 195.331 39.4805C195.201 39.6914 195.136 39.9323 195.136 40.2031V44H194.214ZM200.64 44.125C200.062 44.125 199.563 43.9974 199.144 43.7422C198.727 43.4844 198.405 43.125 198.179 42.6641C197.955 42.2005 197.843 41.6615 197.843 41.0469C197.843 40.4323 197.955 39.8906 198.179 39.4219C198.405 38.9505 198.72 38.5833 199.124 38.3203C199.53 38.0547 200.004 37.9219 200.546 37.9219C200.858 37.9219 201.167 37.974 201.472 38.0781C201.776 38.1823 202.054 38.3516 202.304 38.5859C202.554 38.8177 202.753 39.125 202.901 39.5078C203.05 39.8906 203.124 40.362 203.124 40.9219V41.3125H198.499V40.5156H202.187C202.187 40.1771 202.119 39.875 201.983 39.6094C201.851 39.3437 201.66 39.1341 201.413 38.9805C201.168 38.8268 200.879 38.75 200.546 38.75C200.179 38.75 199.861 38.8411 199.593 39.0234C199.327 39.2031 199.123 39.4375 198.979 39.7266C198.836 40.0156 198.765 40.3255 198.765 40.6562V41.1875C198.765 41.6406 198.843 42.0247 198.999 42.3398C199.158 42.6523 199.378 42.8906 199.659 43.0547C199.94 43.2161 200.267 43.2969 200.64 43.2969C200.882 43.2969 201.101 43.263 201.296 43.1953C201.494 43.125 201.664 43.0208 201.808 42.8828C201.951 42.7422 202.062 42.5677 202.14 42.3594L203.03 42.6094C202.937 42.9115 202.779 43.1771 202.558 43.4062C202.336 43.6328 202.063 43.8099 201.737 43.9375C201.412 44.0625 201.046 44.125 200.64 44.125ZM206.964 44.125C206.401 44.125 205.917 43.9922 205.511 43.7266C205.104 43.4609 204.792 43.0951 204.573 42.6289C204.354 42.1628 204.245 41.6302 204.245 41.0312C204.245 40.4219 204.357 39.8841 204.581 39.418C204.808 38.9492 205.123 38.5833 205.526 38.3203C205.933 38.0547 206.407 37.9219 206.948 37.9219C207.37 37.9219 207.75 38 208.089 38.1562C208.427 38.3125 208.705 38.5312 208.921 38.8125C209.137 39.0937 209.271 39.4219 209.323 39.7969H208.401C208.331 39.5234 208.175 39.2812 207.933 39.0703C207.693 38.8568 207.37 38.75 206.964 38.75C206.604 38.75 206.289 38.8437 206.019 39.0312C205.75 39.2161 205.541 39.4779 205.39 39.8164C205.241 40.1523 205.167 40.5469 205.167 41C205.167 41.4635 205.24 41.8672 205.386 42.2109C205.534 42.5547 205.743 42.8216 206.011 43.0117C206.282 43.2018 206.599 43.2969 206.964 43.2969C207.203 43.2969 207.421 43.2552 207.616 43.1719C207.812 43.0885 207.977 42.9688 208.112 42.8125C208.248 42.6562 208.344 42.4687 208.401 42.25H209.323C209.271 42.6042 209.142 42.9232 208.937 43.207C208.733 43.4883 208.464 43.7122 208.128 43.8789C207.795 44.043 207.407 44.125 206.964 44.125ZM210.671 44V38H211.593V44H210.671ZM211.14 37C210.96 37 210.805 36.9388 210.675 36.8164C210.547 36.694 210.483 36.5469 210.483 36.375C210.483 36.2031 210.547 36.056 210.675 35.9336C210.805 35.8112 210.96 35.75 211.14 35.75C211.319 35.75 211.473 35.8112 211.601 35.9336C211.731 36.056 211.796 36.2031 211.796 36.375C211.796 36.5469 211.731 36.694 211.601 36.8164C211.473 36.9388 211.319 37 211.14 37ZM217.531 39.3437L216.703 39.5781C216.651 39.4401 216.574 39.306 216.473 39.1758C216.374 39.043 216.238 38.9336 216.066 38.8477C215.895 38.7617 215.674 38.7187 215.406 38.7187C215.039 38.7187 214.733 38.8034 214.488 38.9727C214.246 39.1393 214.125 39.3516 214.125 39.6094C214.125 39.8385 214.208 40.0195 214.375 40.1523C214.542 40.2852 214.802 40.3958 215.156 40.4844L216.047 40.7031C216.583 40.8333 216.983 41.0326 217.246 41.3008C217.509 41.5664 217.641 41.9089 217.641 42.3281C217.641 42.6719 217.542 42.9792 217.344 43.25C217.148 43.5208 216.875 43.7344 216.523 43.8906C216.172 44.0469 215.763 44.125 215.297 44.125C214.685 44.125 214.178 43.9922 213.777 43.7266C213.376 43.4609 213.122 43.0729 213.016 42.5625L213.891 42.3437C213.974 42.6667 214.132 42.9089 214.363 43.0703C214.598 43.2318 214.904 43.3125 215.281 43.3125C215.711 43.3125 216.052 43.2214 216.305 43.0391C216.56 42.8542 216.688 42.6328 216.688 42.375C216.688 42.1667 216.615 41.9922 216.469 41.8516C216.323 41.7083 216.099 41.6016 215.797 41.5312L214.797 41.2969C214.247 41.1667 213.844 40.9648 213.586 40.6914C213.331 40.4154 213.203 40.0703 213.203 39.6562C213.203 39.3177 213.298 39.0182 213.488 38.7578C213.681 38.4974 213.943 38.293 214.273 38.1445C214.607 37.9961 214.984 37.9219 215.406 37.9219C216 37.9219 216.466 38.0521 216.805 38.3125C217.146 38.5729 217.388 38.9167 217.531 39.3437ZM219.028 44V38H219.95V44H219.028ZM219.497 37C219.317 37 219.162 36.9388 219.032 36.8164C218.905 36.694 218.841 36.5469 218.841 36.375C218.841 36.2031 218.905 36.056 219.032 35.9336C219.162 35.8112 219.317 35.75 219.497 35.75C219.677 35.75 219.83 35.8112 219.958 35.9336C220.088 36.056 220.153 36.2031 220.153 36.375C220.153 36.5469 220.088 36.694 219.958 36.8164C219.83 36.9388 219.677 37 219.497 37ZM224.076 44.125C223.535 44.125 223.059 43.9961 222.65 43.7383C222.244 43.4805 221.926 43.1198 221.697 42.6562C221.471 42.1927 221.357 41.651 221.357 41.0312C221.357 40.4062 221.471 39.8607 221.697 39.3945C221.926 38.9284 222.244 38.5664 222.65 38.3086C223.059 38.0508 223.535 37.9219 224.076 37.9219C224.618 37.9219 225.092 38.0508 225.498 38.3086C225.907 38.5664 226.225 38.9284 226.451 39.3945C226.68 39.8607 226.795 40.4062 226.795 41.0312C226.795 41.651 226.68 42.1927 226.451 42.6562C226.225 43.1198 225.907 43.4805 225.498 43.7383C225.092 43.9961 224.618 44.125 224.076 44.125ZM224.076 43.2969C224.488 43.2969 224.826 43.1914 225.092 42.9805C225.357 42.7695 225.554 42.4922 225.682 42.1484C225.809 41.8047 225.873 41.4323 225.873 41.0312C225.873 40.6302 225.809 40.2565 225.682 39.9102C225.554 39.5638 225.357 39.2839 225.092 39.0703C224.826 38.8568 224.488 38.75 224.076 38.75C223.665 38.75 223.326 38.8568 223.061 39.0703C222.795 39.2839 222.598 39.5638 222.471 39.9102C222.343 40.2565 222.279 40.6302 222.279 41.0312C222.279 41.4323 222.343 41.8047 222.471 42.1484C222.598 42.4922 222.795 42.7695 223.061 42.9805C223.326 43.1914 223.665 43.2969 224.076 43.2969ZM229.124 40.3906V44H228.202V38H229.093V38.9375H229.171C229.312 38.6328 229.525 38.388 229.812 38.2031C230.098 38.0156 230.468 37.9219 230.921 37.9219C231.327 37.9219 231.683 38.0052 231.987 38.1719C232.292 38.3359 232.529 38.5859 232.698 38.9219C232.868 39.2552 232.952 39.6771 232.952 40.1875V44H232.03V40.25C232.03 39.7786 231.908 39.4115 231.663 39.1484C231.418 38.8828 231.082 38.75 230.655 38.75C230.361 38.75 230.098 38.8138 229.866 38.9414C229.637 39.069 229.456 39.2552 229.323 39.5C229.19 39.7448 229.124 40.0417 229.124 40.3906Z" fill="#171717"/>
</svg>
